<?xml version="1.0" standalone="no"?>
<!DOCTYPE svg PUBLIC "-//W3C//DTD SVG 1.1//EN" "http://www.w3.org/Graphics/SVG/1.1/DTD/svg11.dtd" >
<svg xmlns="http://www.w3.org/2000/svg">
<metadata>
This is a custom SVG webfont generated by Font Squirrel.
Copyright   : Copyright c 2006 Parachute wwwparachutegr  All rights reserved
Designer    : Panos Vassiliou
Foundry     : Parachute Worldwide
Foundry URL : httpwwwparachutegr
</metadata>
<defs>
<font id="webfontULLt2v3B" horiz-adv-x="1089" >
<font-face units-per-em="2048" ascent="1536" descent="-512" />
<missing-glyph horiz-adv-x="540" />
<glyph unicode=" "  horiz-adv-x="540" />
<glyph unicode="&#x09;" horiz-adv-x="540" />
<glyph unicode="&#xa0;" horiz-adv-x="540" />
<glyph unicode="!" horiz-adv-x="423" d="M274 1419l-2 -628l-14 -453h-76l-16 453l-6 628h114zM219 154q35 0 61.5 -25t26.5 -59q0 -39 -26.5 -64.5t-61.5 -25.5q-37 0 -63.5 25.5t-26.5 64.5q0 35 26.5 59.5t63.5 24.5z" />
<glyph unicode="&#x22;" horiz-adv-x="471" d="M303 1010l-22 391h110l-22 -391h-66zM113 1010l-27 391h113l-25 -391h-61z" />
<glyph unicode="#" horiz-adv-x="1062" d="M827 858l-82 -375h162l-14 -71h-162q-6 -23 -18 -81l-27 -124l-27 -125q-12 -59 -16 -82h-78l86 412h-332l-88 -412h-77l88 412h-150l14 71h152q4 20 16.5 73.5t24.5 113.5l24 112q11 53 15 76h-160l17 70h159q2 18 14 69l24 108l25 106l15 69h76l-78 -352h334l78 352h78 l-78 -352h155l-14 -70h-156zM334 483h334q4 20 16 73.5l25 113.5l23 112l16 76h-332z" />
<glyph unicode="$" d="M569 1493h64v-129q61 -4 127.5 -21.5t122.5 -52.5l-33 -84q-72 35 -121 47.5t-96 16.5v-537l124.5 -55.5t109.5 -68.5t77 -97t29 -139t-25.5 -143.5t-72 -105.5t-108.5 -70.5t-134 -39.5v-170h-64v1649zM498 -156h-62v164q-82 8 -162.5 33t-146.5 63l41 89 q92 -49 154.5 -65.5t113.5 -23.5v586q-61 23 -115.5 49.5t-94.5 65.5t-62.5 90t-22.5 123t22.5 129t62.5 100t93.5 71t116.5 40v135h62v-1649zM870 379q0 49 -18 88t-50 68.5t-76 52t-93 41.5v-520q113 18 175 82.5t62 187.5zM244 1028q0 -53 14 -90t40 -63.5t61.5 -45 t76.5 -34.5v467q-80 -23 -136 -78.5t-56 -155.5z" />
<glyph unicode="%" horiz-adv-x="1638" d="M698 946q0 -72 -14 -144.5t-51 -131t-97.5 -95t-152.5 -36.5q-104 0 -167.5 35.5t-98.5 93t-46.5 130t-11.5 146.5q0 68 12.5 142.5t47.5 137t99.5 103.5t168.5 41q106 0 167.5 -43t93.5 -106.5t41 -137.5t9 -135zM600 944q0 45 -5 104.5t-26.5 112.5t-63.5 90t-118 37 q-78 0 -123 -34.5t-67.5 -87t-29.5 -113t-7 -111.5q0 -68 8 -127t32.5 -104t68.5 -71t118 -26q66 0 107 30t64.5 78t32.5 106.5t9 115.5zM567 -47h-86l588 1479h82zM1577 401q0 -72 -14.5 -144.5t-51 -131.5t-97 -96t-152.5 -37q-104 0 -168 35.5t-98.5 93t-46 131.5 t-11.5 147q0 68 12.5 142.5t47 137t99 103.5t169.5 41q106 0 167.5 -43t93.5 -106.5t41 -137.5t9 -135zM1479 399q0 45 -5.5 105.5t-27 113t-63.5 89t-117 36.5q-78 0 -123 -34.5t-67.5 -87t-30 -112.5t-7.5 -112q0 -68 8.5 -127t33 -104t68.5 -70.5t118 -25.5 q66 0 106.5 29.5t64 77.5t33 106.5t9.5 115.5z" />
<glyph unicode="&#x26;" horiz-adv-x="1445" d="M571 1382q70 0 122 -21.5t87 -56t51.5 -81.5t16.5 -99q0 -104 -77 -187t-218 -161l191 -262q101 -133 219 -250q49 45 91 99.5t74.5 122t54 149.5t29.5 186h97q-14 -219 -90 -366.5t-189 -253.5q72 -72 156 -129.5t157 -87.5q-10 -23 -22 -42l-25 -40q-33 14 -75 40 l-91 56q-47 31 -94 67.5t-86 73.5q-104 -78 -223 -117.5t-235 -39.5q-90 0 -169 23.5t-137.5 70.5t-92.5 119.5t-34 171.5q0 141 92.5 247.5t258.5 198.5q-61 84 -88 156.5t-27 128.5q0 57 18.5 109.5t53 91t86.5 61t118 22.5zM166 371q0 -78 25.5 -135.5t69.5 -95.5 t102.5 -56t123.5 -18q96 0 193.5 31.5t204.5 105.5q-53 55 -101 111l-92 110l-121 156q-59 78 -110 153q-63 -35 -117.5 -72.5t-93.5 -81.5t-61.5 -95.5t-22.5 -112.5zM565 1294q-47 0 -77.5 -19.5t-50 -47t-28 -60t-8.5 -59.5q0 -57 27 -118.5t78 -133.5q98 49 170 116.5 t72 151.5q0 76 -48.5 123t-134.5 47z" />
<glyph unicode="'" horiz-adv-x="339" d="M139 1010l-24 391h112l-24 -391h-64z" />
<glyph unicode="(" horiz-adv-x="555" d="M121 586q0 172 34.5 316.5t82 255t97.5 187t79 115.5l47 -33q-23 -33 -61 -104.5t-74.5 -178t-64.5 -246.5t-28 -310q0 -193 28 -343.5t64.5 -263t75.5 -186.5t62 -112l-49 -35q-29 37 -78 114.5t-96 195.5t-83 274.5t-36 353.5z" />
<glyph unicode=")" horiz-adv-x="557" d="M424 586q0 -197 -36 -353.5t-83 -274.5t-97 -195.5t-77 -114.5l-49 35q23 39 61.5 112.5t75.5 186t64.5 263t27.5 343.5q0 170 -27.5 310t-64.5 246.5t-76 178.5t-59 104l49 33q29 -39 78 -115.5t96 -187t82 -255t35 -316.5z" />
<glyph unicode="*" horiz-adv-x="735" d="M399 1165l109 50q55 26 108 55q23 -29 31 -58.5t8 -64.5q-61 -8 -121 -18l-122 -19l85 -85l85 -87q-39 -51 -101 -76l-56 109l-56 108l-107 -215q-63 20 -104 74l84 88l84 86l-119 19.5l-119 19.5q4 72 39 123l217 -109q-8 59 -17.5 120l-19.5 120q33 6 68 6 q16 0 31.5 -1t31.5 -5l-19.5 -120z" />
<glyph unicode="+" d="M596 565v-346h-92v346h-338v88h338v334h92v-334h336v-88h-336z" />
<glyph unicode="," horiz-adv-x="346" d="M82 72q0 35 24.5 60.5t61.5 25.5q43 0 68.5 -30t25.5 -77q0 -35 -11 -74.5t-31.5 -77.5t-50.5 -73t-65 -55l-30 36q35 41 53 89.5t20 95.5q-29 6 -47 27.5t-18 52.5z" />
<glyph unicode="-" horiz-adv-x="708" d="M106 477v103h496v-103h-496z" />
<glyph unicode="." horiz-adv-x="364" d="M264 74q0 -35 -25.5 -60.5t-60.5 -25.5t-60.5 25.5t-25.5 60.5t25.5 60.5t60.5 25.5t60.5 -25.5t25.5 -60.5z" />
<glyph unicode="/" horiz-adv-x="659" d="M109 -55h-86l528 1487h84z" />
<glyph unicode="0" d="M1028 672q0 -121 -22.5 -243t-78 -220t-147.5 -160.5t-229 -62.5q-158 0 -253 59t-148.5 155.5t-71 218.5t-17.5 247q0 113 18.5 237.5t72 230t149.5 175t252 69.5q160 0 254 -71.5t143 -179t63.5 -230.5t14.5 -225zM911 666q0 55 -3 121.5t-14 135t-33.5 133t-62.5 115 t-100.5 81t-144.5 30.5q-127 0 -202 -62.5t-112.5 -156.5t-49 -201.5t-11.5 -199.5q0 -121 14.5 -226.5t55.5 -184.5t114.5 -125t190.5 -46q109 0 178.5 53t109.5 137t55 189t15 207z" />
<glyph unicode="1" d="M522 1237l-313 -31v80l315 72h111v-1358h-113v1237z" />
<glyph unicode="2" d="M70 0v84l182 172l187 183q93 95 167 191.5t119 189.5t45 179q0 72 -22.5 123.5t-62.5 85t-93 49t-117 15.5q-68 0 -159 -22.5t-191 -88.5l-22 37l-23 37q109 78 217.5 107.5t196.5 29.5q84 0 156.5 -21.5t125.5 -65.5t84 -111.5t31 -159.5q0 -88 -34 -175t-90 -171 t-127 -163t-144 -152l-144 -138q-70 -66 -123 -121q2 -2 2 -4q178 0 355.5 -1t355.5 -1v-88h-872z" />
<glyph unicode="3" d="M743 1260h-610v96h766l21 -76l-100 -101l-130 -130l-130 -130l-101 -102l4 -8h53q98 0 179 -23.5t139.5 -71.5t91 -121t32.5 -171q0 -111 -37.5 -193t-103 -136t-152.5 -81.5t-186 -27.5q-117 0 -215 16t-184 55l31 84q113 -35 198.5 -47t145.5 -12q86 0 156.5 20.5 t120.5 62.5t79 105.5t29 151.5q0 145 -104.5 220t-293.5 75q-35 0 -64.5 -2t-62.5 -6q-4 10 -13 36.5t-13 36.5l463 471z" />
<glyph unicode="4" d="M834 1356v-881h200v-90h-200q0 -98 1 -193.5t1 -191.5h-115q0 96 1 191.5t1 193.5h-672v92l331 438l331 441h121zM715 1206l-553 -731h563v731h-10z" />
<glyph unicode="5" d="M502 743q-59 0 -124 -14t-120 -43q-6 2 -16 9l-22 15l-21 14q-10 7 -15 9q2 49 7 134l11 177l10 178q5 85 7 134h694v-96h-596q-4 -39 -7 -102.5t-7 -132.5l-8 -133q-4 -65 -6 -104l38 15q22 8 51.5 15t69 13.5t93.5 6.5q78 0 155.5 -22.5t139 -72t100.5 -128t39 -191.5 t-39 -196t-103.5 -138t-150.5 -81.5t-180 -26.5q-117 0 -216.5 17t-189.5 58l31 84q106 -35 189 -48t147 -13q180 0 286.5 83t106.5 261q0 80 -27.5 140.5t-75.5 100.5t-112.5 59t-138.5 19z" />
<glyph unicode="6" d="M625 1376q104 0 175.5 -20.5t114.5 -40.5l-30 -84q-78 29 -143.5 39t-114.5 10q-82 0 -142.5 -29.5t-105.5 -77t-74 -107.5t-47 -119.5t-26.5 -115t-10.5 -94.5l8 -6q72 43 164 74t205 31q80 0 152.5 -22.5t128 -73t88 -129.5t32.5 -191q0 -100 -31.5 -181t-90 -137.5 t-139.5 -86t-179 -29.5q-135 0 -223 50t-139.5 136t-71 201.5t-19.5 247.5q0 166 33 305t97.5 238.5t162 155.5t226.5 56zM887 412q0 74 -15.5 134t-52.5 103t-96 67.5t-145 24.5q-82 0 -146.5 -17t-110 -37.5t-71 -39t-27.5 -20.5v-52q0 -70 10.5 -156.5t45 -162.5 t102.5 -127t182 -51q78 0 138.5 24.5t101.5 69.5t62.5 105.5t21.5 134.5z" />
<glyph unicode="7" d="M137 1262v96h803v-92l-567 -1266h-113l569 1262h-692z" />
<glyph unicode="8" d="M272 1049q0 -59 32 -102.5t83 -77t117 -61.5l133 -56q117 80 162 152.5t45 137.5q0 39 -15.5 83t-50.5 79t-91 58.5t-136 23.5t-133 -25.5t-85 -62.5t-46.5 -77.5t-14.5 -71.5zM541 76q84 0 146.5 23.5t103 63.5t61 91t20.5 104q0 76 -32.5 128.5t-90 92t-136.5 73.5 l-173 73q-131 -82 -184 -184.5t-53 -198.5q0 -49 18.5 -97t59.5 -86t104.5 -60.5t155.5 -22.5zM954 1061q0 -80 -45 -171t-170 -181q109 -53 177.5 -139.5t68.5 -213.5q0 -74 -29.5 -141.5t-87 -118.5t-141.5 -80.5t-192 -29.5q-115 0 -199 27.5t-139.5 74.5t-83 108.5 t-27.5 131.5q0 57 14.5 118.5t47 119t83 109.5t121.5 93q-100 55 -149 119.5t-49 161.5q0 68 28.5 128t81.5 105t128 71.5t165 26.5q68 0 138.5 -17t128 -56t94 -99.5t36.5 -146.5z" />
<glyph unicode="9" d="M848 631q-72 -47 -164 -78t-203 -31q-80 0 -152.5 22.5t-128 73t-88 130t-32.5 192.5q0 100 31.5 181t89 138.5t139.5 87t180 29.5q135 0 223 -50t138.5 -137t71 -203t20.5 -245q0 -166 -33 -305t-97.5 -238.5t-162.5 -154.5t-227 -55q-104 0 -186.5 18.5t-125.5 40.5 l31 84q78 -31 153.5 -41t127.5 -10q80 0 140 29.5t105 78t74 107.5t47.5 119.5t26.5 116t10 94.5zM500 618q82 0 147.5 17.5t110.5 38t69.5 39t28.5 20.5v51q0 70 -10 156t-45 162t-102.5 127t-182.5 51q-158 0 -240.5 -92t-82.5 -238q0 -74 15 -134t51 -104t95.5 -69 t145.5 -25z" />
<glyph unicode=":" horiz-adv-x="360" d="M268 78q0 -35 -23.5 -61.5t-60.5 -26.5t-62.5 26.5t-25.5 61.5t25.5 59.5t60.5 24.5t60.5 -24.5t25.5 -59.5zM268 715q0 -37 -24.5 -62.5t-59.5 -25.5t-61.5 26.5t-26.5 61.5t25.5 59.5t60.5 24.5t60.5 -24.5t25.5 -59.5z" />
<glyph unicode=";" horiz-adv-x="360" d="M268 715q0 -37 -24.5 -62.5t-59.5 -25.5t-61.5 26.5t-26.5 61.5t25.5 59.5t60.5 24.5t60.5 -24.5t25.5 -59.5zM92 72q0 35 24.5 60.5t63.5 25.5q41 0 67.5 -30t26.5 -77q0 -35 -11 -73.5t-32.5 -77.5t-51 -73t-64.5 -56l-31 39q35 41 53.5 88t20.5 94q-29 6 -47.5 27.5 t-18.5 52.5z" />
<glyph unicode="&#x3c;" d="M938 166l-776 399v84l776 398v-105l-674 -334l674 -338v-104z" />
<glyph unicode="=" d="M152 717v90h784v-90h-784zM152 426v88h784v-88h-784z" />
<glyph unicode="&#x3e;" d="M162 270l674 338l-674 334v105l776 -398v-84l-776 -399v104z" />
<glyph unicode="?" horiz-adv-x="868" d="M813 1163q0 -70 -34 -129t-84 -113.5t-109.5 -104.5t-109.5 -100t-84 -102.5t-34 -109.5q0 -35 5.5 -71t13.5 -81l-101 -18q-14 59 -19 106t-5 78q0 70 32.5 128.5t81 110.5t105.5 100t105.5 96t81 98.5t32.5 107.5q0 98 -71.5 139t-180.5 41q-61 0 -140 -10t-183 -45 l-29 92q94 33 187.5 47.5t166.5 14.5q186 0 279.5 -73t93.5 -202zM453 68q0 -39 -26 -61.5t-60 -22.5q-35 0 -61.5 23.5t-26.5 60.5q0 35 25.5 59.5t60.5 24.5q37 0 62.5 -24.5t25.5 -59.5z" />
<glyph unicode="@" horiz-adv-x="1769" d="M926 1403q164 0 294 -46t221 -132t139 -208t48 -272q0 -106 -30.5 -184t-79 -129t-107.5 -76.5t-117 -25.5q-63 0 -125.5 24.5t-91.5 91.5q-47 -45 -121.5 -79.5t-160.5 -34.5q-66 0 -107 21.5t-63.5 54t-31.5 70.5t-9 71q0 104 69.5 156.5t180.5 62.5l225 16v66 q0 104 -36 144t-132 40q-113 0 -236 -45q-4 12 -10 33l-10 35q59 29 133 44t145 15q111 0 172.5 -54t61.5 -183v-332q0 -68 39 -104.5t114 -36.5q43 0 87.5 18t80 59t58 105.5t22.5 154.5q0 141 -45 251t-126 184.5t-195.5 114.5t-255.5 40t-268.5 -49t-222.5 -137 t-150.5 -207t-55.5 -256q0 -141 49.5 -260t135.5 -205t202.5 -135t251.5 -49q57 0 114.5 8t129.5 31l21 -68q-51 -18 -120 -31.5t-139 -13.5q-160 0 -291.5 54.5t-228 149.5t-149.5 227t-53 288q0 158 61 290t167.5 228t247 150.5t298.5 54.5zM844 702q-72 -4 -119 -42.5 t-47 -104.5t36 -107.5t113 -41.5q53 0 113.5 24.5t118.5 75.5v215z" />
<glyph unicode="A" horiz-adv-x="1128" d="M971 0l-123 383h-576l-59 -193l-59 -190h-125l456 1399h156l228 -701l227 -698h-125zM819 477l-93 297l-93 295q-6 23 -16 52l-18 61l-18 60l-16 52h-6l-70 -225l-184 -592h514z" />
<glyph unicode="B" horiz-adv-x="1196" d="M846 723q68 -25 111.5 -66t69.5 -90t36 -100t10 -94q0 -86 -29.5 -154.5t-82 -117t-121 -75t-146.5 -26.5h-530v1397h465q203 0 302 -98.5t99 -251.5q0 -29 -7 -68t-27.5 -82t-56.5 -85t-93 -75v-14zM283 678v-584h370q80 0 137.5 23.5t93.5 64.5t52 93.5t16 111.5 q0 57 -20.5 109.5t-59 92.5t-95 64.5t-126.5 24.5h-368zM283 774h333q135 0 214 70.5t79 189.5q0 57 -17.5 106.5t-54 85.5t-94 56.5t-137.5 20.5h-323v-529z" />
<glyph unicode="C" horiz-adv-x="1165" d="M709 1421q111 0 199.5 -16t148.5 -39l-29 -92q-80 27 -160 38t-149 11q-123 0 -211 -45t-146.5 -128t-86 -199.5t-27.5 -262.5q0 -121 18.5 -229.5t69.5 -192.5t143 -133t240 -49q27 0 68.5 3t88 8t94.5 14.5t89 21.5l24 -86q-35 -14 -82 -25.5t-99 -18.5t-105.5 -11 t-98.5 -4q-160 0 -269.5 50t-177 142t-98 222t-30.5 290q0 113 24.5 241t90 237.5t179.5 181t292 71.5z" />
<glyph unicode="D" horiz-adv-x="1275" d="M164 0v1401h430q166 0 273.5 -56.5t171 -152.5t89 -222t25.5 -268q0 -143 -27.5 -271t-94 -223t-178.5 -151.5t-280 -56.5h-409zM287 1305v-1207h270q31 0 78 3t99 20.5t104.5 53.5t94.5 101.5t68.5 166t26.5 245.5q0 150 -24.5 253t-63.5 172t-88 106.5t-100.5 57 t-98.5 24t-82 4.5h-284z" />
<glyph unicode="E" horiz-adv-x="1087" d="M164 0v1399h805v-94h-684v-517h585v-94h-585v-598h719v-96h-840z" />
<glyph unicode="F" horiz-adv-x="1030" d="M164 0v1399h801v-96h-680v-521h577v-96h-577v-686h-121z" />
<glyph unicode="G" horiz-adv-x="1247" d="M737 1421q111 0 203 -16t152 -39l-25 -90q-86 25 -168 36t-154 11q-127 0 -221 -45t-155.5 -128t-91 -202t-29.5 -264q0 -117 18.5 -225.5t69.5 -191.5t142 -132t237 -49q29 0 64.5 3t73.5 7t74 11.5t62 17.5v584h115v-664q-98 -33 -201.5 -46t-202.5 -13q-158 0 -268 50 t-179 143t-99.5 223t-30.5 290q0 74 11 158t39 165t73 154.5t113.5 130t161.5 89t216 32.5z" />
<glyph unicode="H" horiz-adv-x="1282" d="M993 0v688h-706v-85v-120q0 -66 1 -138.5t1 -137.5v-121v-86h-125v1399h125v-126q0 -85 -1 -178.5t-1 -178.5v-125h706v608h125v-1399h-125z" />
<glyph unicode="I" horiz-adv-x="487" d="M184 0v1401h119v-1401h-119z" />
<glyph unicode="J" horiz-adv-x="579" d="M256 1401h119v-1159q0 -125 -28 -219.5t-82 -167t-134 -126t-182 -96.5l-37 88q92 53 157.5 104.5t107.5 110t60.5 131t18.5 169.5v1165z" />
<glyph unicode="K" horiz-adv-x="1126" d="M285 0h-121v1401h121v-676l655 676h143l-548 -561l563 -840h-137l-506 756l-170 -172v-584z" />
<glyph unicode="L" horiz-adv-x="1087" d="M186 0v1399h123v-1305h748v-94h-871z" />
<glyph unicode="M" horiz-adv-x="1626" d="M299 1397l217 -486l217 -487l74 -170h10l39 86l37 86l218 485l220 486h129v-1397h-117q0 293 -1 583.5t-1 583.5h-4l-94 -213l-100 -220l-100 -219l-93 -207l-82 -181h-116l-29 63l-33 75l-43 94l-57 124l-94 214l-121 264l-90 208h-6v-1169h-115v1397h135z" />
<glyph unicode="N" horiz-adv-x="1347" d="M1065 205v1194h119l-2 -1399h-117l-75 114l-107 167l-124 193l-124 194l-109 167l-73 113l-164 264q-2 0 -4 -1t-4 -1v-1210h-117v1399h123l72 -111l108 -166l125 -193l124 -194l105 -166l72 -110l164 -254h8z" />
<glyph unicode="O" horiz-adv-x="1384" d="M1262 694q0 -152 -35 -280.5t-105.5 -224t-175 -149.5t-241.5 -54q-160 0 -270.5 49t-179.5 139t-100.5 220t-31.5 294q0 143 29.5 276.5t97 234.5t179.5 161.5t276 60.5q166 0 273 -60.5t170.5 -161.5t88.5 -232.5t25 -272.5zM1135 688q0 106 -15.5 220t-61.5 207 t-131 152.5t-222 59.5q-139 0 -227.5 -55t-139.5 -145.5t-70.5 -206t-19.5 -236.5q0 -295 106.5 -449.5t343.5 -154.5q113 0 195 48t135 130t80 192.5t27 237.5z" />
<glyph unicode="P" horiz-adv-x="1075" d="M1016 1004q0 -61 -18.5 -134t-63.5 -134.5t-123 -102.5t-197 -41h-329l2 -592h-123v1401h432q88 0 165 -24.5t134 -74t89 -124t32 -174.5zM285 1305v-619h315q53 0 105.5 14.5t93.5 50t66.5 96t25.5 150.5q0 78 -23.5 136.5t-63.5 96.5t-94.5 56.5t-115.5 18.5h-309z" />
<glyph unicode="Q" horiz-adv-x="1384" d="M1262 692q0 -119 -22.5 -225.5t-66 -192.5t-109 -149.5t-151.5 -97.5l70 -19l99 -25l99 -25q46 -11 68 -17l-41 -113l-95 31l-132 43l-132 43q-62 20 -93 32q-10 2 -25.5 2.5t-25.5 2.5q-160 6 -270.5 55t-179.5 138t-100.5 218t-31.5 295q0 143 29.5 276.5t97 234.5 t179.5 161.5t276 60.5q166 0 273 -61.5t169.5 -162.5t88.5 -232.5t26 -272.5zM1135 688q0 106 -15.5 219t-61.5 206t-131 152.5t-222 59.5q-139 0 -227.5 -55.5t-139.5 -145.5t-70.5 -205.5t-19.5 -234.5q0 -297 105.5 -451.5t342.5 -154.5q113 0 196 48t136 131t80 193.5 t27 237.5z" />
<glyph unicode="R" horiz-adv-x="1153" d="M1018 1024q0 -59 -14.5 -117.5t-45 -107.5t-79 -86t-113.5 -54q84 -27 124 -91t64 -150l121 -418h-123l-114 401q-23 68 -50.5 112t-63.5 69.5t-79 36t-94 10.5h-266v-629h-121v1401h440q106 0 185 -29t129.5 -79t75 -119.5t24.5 -149.5zM598 725q59 0 112.5 15.5 t94.5 50t64.5 91t23.5 136.5q0 147 -85 216t-216 69h-307v-578h313z" />
<glyph unicode="S" horiz-adv-x="1120" d="M567 1423q78 0 176.5 -14t190.5 -59l-39 -93q-104 41 -184 53.5t-152 12.5q-135 0 -224 -69.5t-89 -213.5q0 -63 29.5 -106t76.5 -71.5t108.5 -48t127.5 -36.5q76 -20 154.5 -44.5t142 -67.5t103.5 -112t40 -177q0 -104 -38 -178t-104.5 -122t-157.5 -69.5t-196 -21.5 q-111 0 -226.5 23.5t-211.5 78.5l41 90q119 -57 214 -75.5t179 -18.5q180 0 277.5 65.5t97.5 227.5q0 70 -24.5 117t-68.5 78.5t-104.5 53t-132.5 40.5q-90 25 -172 51t-144 67t-99 101.5t-37 152.5t32.5 164t92 121t141.5 74.5t180 25.5z" />
<glyph unicode="T" horiz-adv-x="1097" d="M489 0v1303h-450v98h1018v-98h-447l-2 -1303h-119z" />
<glyph unicode="U" horiz-adv-x="1339" d="M1186 498q0 -115 -32 -209t-96.5 -162t-161.5 -104.5t-228 -36.5q-270 0 -391 136t-121 376v903h116l2 -901q0 -209 100.5 -314.5t295.5 -105.5q193 0 294 104.5t101 315.5v901h121v-903z" />
<glyph unicode="V" horiz-adv-x="1081" d="M547 125l82 278l299 998h125l-439 -1401h-147l-438 1401h129l301 -1002l80 -274h8z" />
<glyph unicode="W" horiz-adv-x="1652" d="M799 1217q-20 -98 -43 -191.5t-43 -191.5l-79 -337l-114 -497h-151l-340 1397h123l36 -161l50 -214l56 -242l58 -243l90 -396h9l44 192l44 193l102 438l100 433h127l53 -196l65 -243l65 -240l51 -188q4 -12 19 -67l32 -120l32 -123q15 -58 21 -79h11l88 391l198 865h119 l-173 -716l-167 -681h-145l-114 423l-116 429l-46 182l-50 183h-12z" />
<glyph unicode="X" horiz-adv-x="1081" d="M467 725l-205 336l-207 338h135l176 -296l177 -294l354 590h133l-210 -340l-210 -338l443 -721h-135l-381 635l-379 -635h-131l220 362z" />
<glyph unicode="Y" horiz-adv-x="1024" d="M442 623l-417 778h129l219 -416l129 -256h8l133 254l227 418h127l-428 -770v-631h-127v623z" />
<glyph unicode="Z" horiz-adv-x="1028" d="M88 1401h866v-98l-770 -1203h805v-100h-950v98l770 1202h-721v101z" />
<glyph unicode="[" horiz-adv-x="499" d="M119 -328v1753h307v-86h-197v-1579h197v-88h-307z" />
<glyph unicode="\" horiz-adv-x="659" d="M23 1432h83l529 -1487h-86z" />
<glyph unicode="]" horiz-adv-x="499" d="M76 -328v88h196v1579h-196v86h305v-1753h-305z" />
<glyph unicode="^" horiz-adv-x="880" d="M727 801l-289 502l-286 -502h-101l74 125l101 173l101 173l72 125h84l340 -596h-96z" />
<glyph unicode="_" horiz-adv-x="1024" d="M0 -254v74h1024v-74h-1024z" />
<glyph unicode="`" horiz-adv-x="978" d="M272 1391l93 84l231 -314l-57 -49z" />
<glyph unicode="a" horiz-adv-x="1036" d="M516 1010q152 0 235 -74t83 -252v-594h135q4 -16 4 -33.5t2 -33.5q-35 -16 -76 -24.5t-74 -8.5q-57 0 -83 27q-22 24 -22 78q0 9 1 18l-4 2q-59 -47 -111.5 -73t-96.5 -38t-79 -14t-59 -2q-84 0 -140.5 25.5t-89 65.5t-46 89t-13.5 94q0 137 91 210t235 83l313 16v82 q0 139 -47 199.5t-182 60.5q-76 0 -156 -16t-156 -43l-28 80q86 37 182 56.5t182 19.5zM436 473q-117 -4 -174 -57.5t-57 -141.5q0 -100 50 -149t159 -49q72 0 148.5 37t158.5 104v272z" />
<glyph unicode="b" horiz-adv-x="1017" d="M238 924q98 51 173.5 71.5t141.5 20.5q106 0 176 -40t112 -109.5t59.5 -166t17.5 -208.5q0 -104 -20.5 -196.5t-69 -160t-126 -107.5t-194.5 -40q-104 0 -202.5 21.5t-184.5 60.5v1384h115v-326q0 -10 -1.5 -38.5t-1.5 -60.5t-1 -61.5t-1 -39.5zM537 920q-78 0 -159 -31 t-142 -66v-690q72 -31 139 -42t125 -11q70 0 126 21.5t95 69.5t59.5 126t20.5 190q0 127 -19.5 210t-54.5 132.5t-83 70t-107 20.5z" />
<glyph unicode="c" horiz-adv-x="911" d="M219 492q0 -86 14.5 -161t50 -130.5t95 -88t149.5 -32.5q82 0 149.5 17.5t147.5 49.5l31 -79q-61 -35 -148 -58.5t-186 -23.5q-117 0 -197.5 37.5t-131 103.5t-72 157t-21.5 199q0 51 7.5 110.5t25 119t49 115t79.5 97.5t115.5 66.5t160.5 24.5q70 0 141.5 -11.5 t138.5 -39.5l-31 -86q-74 27 -134 34t-107 7q-164 0 -245 -117.5t-81 -310.5z" />
<glyph unicode="d" horiz-adv-x="1019" d="M784 102q-2 0 -2 1t-2 1q-66 -53 -149.5 -84.5t-167.5 -31.5q-102 0 -172 39t-112 104.5t-60.5 154.5t-18.5 191q0 113 21.5 211t68 171t121 114t181.5 41q59 0 138 -16.5t152 -61.5v516h115v-1452h-113v102zM782 838q-45 29 -122.5 54.5t-153.5 25.5q-59 0 -111.5 -22 t-91.5 -74t-61.5 -137t-22.5 -210q0 -113 19.5 -188.5t55.5 -121.5t87 -65.5t113 -19.5q33 0 73.5 10t80.5 26.5t75 39t59 45.5v637z" />
<glyph unicode="e" horiz-adv-x="995" d="M520 928q-80 0 -135 -31t-89 -82t-51.5 -117.5t-23.5 -138.5h570q0 80 -13.5 147.5t-44.5 116.5t-83 77t-130 28zM518 1014q96 0 163 -28t110 -72t65.5 -99t32.5 -107.5t11 -98.5t1 -72v-60h-682q0 -80 13.5 -151.5t48 -127t94 -88t151.5 -32.5q90 0 161 18.5t157 57.5 l30 -78q-86 -47 -169.5 -68.5t-182.5 -21.5q-127 0 -209 41t-129 109.5t-65.5 160.5t-18.5 197q0 41 5.5 96t21.5 112.5t45 113.5t75 100.5t112.5 71t158.5 26.5z" />
<glyph unicode="f" horiz-adv-x="690" d="M217 909h-141v66l141 29v176q0 147 78 220t223 73q39 0 86 -5.5t94 -15.5l-14 -86q-35 6 -74 10t-69 4q-106 0 -158.5 -44t-52.5 -152v-185h297v-90h-297l-2 -909h-111v909z" />
<glyph unicode="g" horiz-adv-x="1069" d="M274 399q-57 29 -100 95.5t-43 173.5q0 94 34 160.5t87 107.5t119.5 60.5t134.5 19.5q47 0 93 -4t89 -19h307v-82h-172l-4 -6q47 -41 68.5 -101.5t21.5 -129.5q0 -80 -29.5 -142.5t-83 -106.5t-127 -66.5t-163.5 -22.5h-117q-78 0 -129 -15.5t-51 -70.5q0 -39 31.5 -59.5 t89.5 -20.5h274q184 0 272.5 -77t88.5 -214q0 -76 -34 -136t-95.5 -101t-146.5 -63.5t-187 -22.5q-121 0 -201 24.5t-126 64.5t-64.5 92t-18.5 109q0 86 41 154t90 96q-125 18 -125 137q0 45 16.5 74t42 47.5t56.5 26.5t59 12zM342 82q-29 -12 -54.5 -34.5t-44 -52.5 t-28.5 -62.5t-10 -63.5q0 -43 13 -84t48 -72.5t96.5 -50t157.5 -18.5q147 0 238.5 62.5t91.5 170.5q0 35 -9.5 71t-38 65.5t-79.5 49t-137 19.5h-244zM795 674q0 43 -13.5 88t-46.5 82t-85 60.5t-132 23.5q-133 0 -202.5 -68.5t-69.5 -187.5q0 -113 68.5 -181.5t179.5 -68.5 q135 0 218 62.5t83 189.5z" />
<glyph unicode="h" horiz-adv-x="1003" d="M242 901q98 53 196.5 84t167.5 31q100 0 155.5 -30t82 -75t33 -99t6.5 -105v-707h-115v672q0 55 -5 101t-25.5 78t-58.5 49.5t-104 17.5q-41 0 -85 -9.5t-89 -25t-87 -35t-78 -39.5v-809h-115v1454h112v-305v-50q0 -34 -1 -71l-2 -72q-1 -35 -1 -49z" />
<glyph unicode="i" horiz-adv-x="460" d="M172 0v997h115v-997h-115zM313 1253q0 -33 -24.5 -57.5t-59.5 -24.5t-58.5 25t-23.5 57q0 35 24 60.5t58 25.5q35 0 59.5 -25.5t24.5 -60.5z" />
<glyph unicode="j" horiz-adv-x="479" d="M186 997h115v-1001q-2 -86 -17.5 -151.5t-52 -117t-96 -92.5t-151.5 -77l-35 80q74 41 120 77.5t72.5 77.5t36.5 89t10 112zM164 1253q0 35 23.5 60.5t58.5 25.5t59.5 -25.5t24.5 -60.5q0 -33 -24.5 -57.5t-59.5 -24.5t-58.5 24.5t-23.5 57.5z" />
<glyph unicode="k" horiz-adv-x="878" d="M229 543q2 0 11 -4l120 123l338 333h133l-391 -389l32 -40l32 -42l75 -112l101 -150l101 -150q48 -73 77 -112h-129l-181 268l-181 269q-33 -35 -67 -67t-67 -67v-403h-114v1450h114v-657z" />
<glyph unicode="l" horiz-adv-x="419" d="M266 0h-114v1454h114v-1454z" />
<glyph unicode="m" horiz-adv-x="1613" d="M1376 0v670q0 57 -6 102t-26.5 78t-59.5 50.5t-104 17.5q-37 0 -81 -9.5t-87 -25t-84 -34t-74 -38.5q4 -29 6 -59.5t2 -55.5v-696h-114v688q0 109 -38 168t-147 59q-80 0 -168 -32.5t-159 -75.5v-807h-115v997h110v-19q0 -13 1 -27.5t1 -27.5v-20q2 0 4.5 -2t4.5 -2 q92 55 183 85t167 30q96 0 153.5 -33t88.5 -92q98 59 195 92t175 33q100 0 157.5 -29t86.5 -73t36 -97t7 -102v-713h-115z" />
<glyph unicode="n" horiz-adv-x="1003" d="M768 0v670q0 57 -7 102t-27.5 78t-58.5 50.5t-100 17.5q-39 0 -84 -9.5t-89 -25t-87 -35t-79 -39.5v-809h-115v997h112v-18q0 -12 1.5 -26.5t1.5 -27.5v-20q0 -2 2 -2t2 -1t2 -1q90 55 190 85t172 30q98 0 153.5 -26.5t83 -69.5t35 -96.5t7.5 -104.5v-719h-115z" />
<glyph unicode="o" horiz-adv-x="1034" d="M936 494q0 -92 -19.5 -183.5t-67.5 -164t-130 -116.5t-207 -44q-121 0 -200 42t-126 111.5t-66.5 160.5t-19.5 189t22.5 192.5t73 168.5t132.5 119t198 45q121 0 200 -45t126 -119t65.5 -167t18.5 -189zM817 489q0 72 -11 149t-42 139.5t-88.5 103.5t-149.5 41 t-151.5 -39t-94 -100.5t-48 -139.5t-13.5 -156q0 -80 11.5 -153.5t45 -130t93 -91t157.5 -34.5q90 0 147.5 37t89.5 96t43 132.5t11 145.5z" />
<glyph unicode="p" horiz-adv-x="1017" d="M240 893q66 53 147.5 85t165.5 32q102 0 172 -39t112 -105.5t60 -157t18 -192.5q0 -111 -20.5 -208t-67.5 -168.5t-121.5 -112.5t-181.5 -41q-59 0 -138 14t-153 61v-491h-112v1427h106q0 -6 1 -20t1 -29.5t1 -29t1 -19.5zM233 158q45 -31 123 -56.5t154 -25.5 q59 0 112.5 22.5t92.5 74.5t61.5 137t22.5 210q0 113 -19.5 187.5t-56.5 120.5t-88 65.5t-113 19.5q-35 0 -74.5 -10t-79.5 -27.5t-75 -39t-60 -43.5v-635z" />
<glyph unicode="q" horiz-adv-x="1019" d="M774 72q-96 -51 -167.5 -70.5t-135.5 -19.5q-106 0 -177 36.5t-114 103t-60.5 159t-17.5 200.5q0 109 20.5 205t69 169t127 115t197.5 42q109 0 204 -22.5t177 -59.5v-1360h-113v264v116q0 56 2 113zM481 76q80 0 160 29.5t141 64.5v698q-70 29 -134 40.5t-124 11.5 q-139 0 -222 -97.5t-85 -318.5q0 -125 18.5 -207t53.5 -131t84 -69.5t108 -20.5z" />
<glyph unicode="r" horiz-adv-x="643" d="M262 862q33 27 76 55.5t88 51t88 37t76 14.5q16 0 28.5 -8t12.5 -31q0 -18 -11.5 -54t-27.5 -59q-25 -2 -70 -11l-96 -19q-51 -10 -96 -20.5t-70 -12.5v-805h-117v997h115q0 -6 -1 -25l-2 -40l-2 -40q-1 -19 -1 -26z" />
<glyph unicode="s" horiz-adv-x="876" d="M125 143q88 -43 164 -55t131 -12t102 10t82 32.5t55.5 58.5t20.5 85q0 45 -20.5 76t-53.5 54.5t-76 39.5l-88 33q-63 20 -121.5 42.5t-104.5 54.5t-73.5 76t-27.5 110q0 70 27.5 121t73.5 82.5t107.5 47t129.5 15.5q53 0 133 -13.5t145 -48.5l-16 -43q-10 -27 -19 -41 q-74 29 -134 40.5t-111 11.5q-92 0 -159 -40t-67 -135q0 -39 22.5 -67.5t57.5 -50t75 -37t75 -25.5l122 -42q60 -22 108 -54.5t77 -81.5t29 -123t-29 -126t-80 -86t-118.5 -50t-143.5 -16q-88 0 -178 18.5t-156 56.5z" />
<glyph unicode="t" horiz-adv-x="681" d="M311 1221v-224h295v-88h-297v-657q0 -74 29 -120t121 -46q70 0 190 35l19 -78q-51 -23 -111.5 -37t-120.5 -14q-111 0 -175 51t-64 174v692h-144v64l148 35l37 200z" />
<glyph unicode="u" horiz-adv-x="985" d="M399 -20q-102 0 -158.5 28.5t-83 73.5t-31.5 99.5t-5 105.5v710h115v-675q0 -57 5 -103.5t24.5 -78t57 -49t103.5 -17.5q63 0 153.5 35.5t172.5 107.5l-2 780q23 0 57.5 1t56.5 1v-999h-112v121l-7 4q-55 -47 -106 -76t-97 -44t-82 -20t-61 -5z" />
<glyph unicode="v" horiz-adv-x="866" d="M358 0l-163 490l-170 505h116l99 -300q51 -151 98 -308l45 -146l45 -145h10l38 125l56 180l54 165l52 160l48 146l39 123h119l-175 -506l-171 -489h-140z" />
<glyph unicode="w" horiz-adv-x="1404" d="M1030 113l72 286l162 598h116l-286 -997h-131l-181 563l-88 301h-8l-78 -289l-168 -575h-133l-282 997h114l158 -575l78 -309h8l88 325l162 559h115l190 -604l82 -280h10z" />
<glyph unicode="x" horiz-adv-x="831" d="M414 451l-138 -227l-139 -224h-123l165 262l167 262l-148 237l-151 236h129l238 -395l120 198l119 197h127l-151 -235l-150 -234l169 -264l169 -264h-131z" />
<glyph unicode="y" horiz-adv-x="888" d="M444 76q6 16 30 96l56 182l53 162l54 172l52 166l46 143h117l-49 -148l-69 -212l-79 -244l-80 -242l-69 -211l-49 -149q-35 -109 -91.5 -172t-160.5 -63q-29 2 -79 5t-128 25l18 86q59 -12 94 -17t70 -5q29 0 52.5 4t45 19.5t39 45t33.5 78.5l68 207h-60l-40 126l-56 174 l-65 198l-66 197l-57 173q-27 78 -41 125h112l25 -77l36 -114l42 -131l42 -131l36 -114q16 -51 24 -80l86 -274h8z" />
<glyph unicode="z" horiz-adv-x="823" d="M180 88l608 2v-90h-759v80l596 819l-7 8h-534v90h684v-86l-592 -813z" />
<glyph unicode="{" horiz-adv-x="505" d="M362 -338q-53 0 -84.5 20.5t-49 52.5t-22.5 68.5t-5 69.5v473q0 33 -4 69t-18.5 67.5t-42 56t-75.5 34.5v70q43 8 70 29.5t42 53.5t21.5 70t6.5 76v299q0 39 4 84t20.5 85t48 67t84.5 27h97v-88h-47q-53 0 -76 -35t-23 -97v-348q0 -41 -5 -81t-17.5 -74.5t-35 -61 t-58.5 -39.5q41 -23 64.5 -50.5t34.5 -63t14 -79.5t3 -100v-440q0 -53 15.5 -91t74.5 -38h56v-86h-93z" />
<glyph unicode="|" horiz-adv-x="454" d="M178 -281v1711h90v-1711h-90z" />
<glyph unicode="}" horiz-adv-x="505" d="M57 -338v86h56q59 0 73.5 38t14.5 91v440q0 55 3 99.5t14 80t34.5 63.5t66.5 50q-37 12 -60 39t-35.5 61.5t-17.5 74.5t-5 81v348q0 61 -22.5 96.5t-76.5 35.5h-45v88h95q53 0 84.5 -27t48 -67t20.5 -85t4 -84v-299q0 -39 6.5 -76.5t21.5 -69.5t42 -53.5t70 -29.5v-70 q-47 -10 -75 -34.5t-42.5 -56t-18.5 -67.5t-4 -69v-473q0 -33 -5 -69.5t-22.5 -68.5t-49 -52.5t-85.5 -20.5h-90z" />
<glyph unicode="~" d="M782 508q-57 0 -119.5 13.5t-124 29.5t-119 29.5t-100.5 13.5l-122 -90l-52 39q35 72 80 109.5t107 37.5q47 0 110.5 -13t129 -29.5t126 -30t99.5 -13.5l116 88l50 -37q-31 -72 -75.5 -109.5t-105.5 -37.5z" />
<glyph unicode="&#xa1;" horiz-adv-x="423" d="M256 653q2 -47 4 -123l4 -157l4 -159q2 -77 2 -122v-46q0 -40 1 -95t1 -118.5t1 -119t1 -95.5v-46h-114l6 584l16 497h74zM305 924q0 -35 -25.5 -60.5t-62.5 -25.5q-35 0 -61.5 25.5t-26.5 60.5q0 37 26.5 63.5t63.5 26.5q35 0 60.5 -26.5t25.5 -63.5z" />
<glyph unicode="&#xa2;" d="M551 -12q-106 6 -180 46t-119 105.5t-64.5 153.5t-19.5 190q0 74 15.5 161t56.5 166t115.5 135t195.5 69v166h72v-164q66 -2 132 -13.5t130 -37.5l-31 -86q-70 25 -127 33t-104 8v-840q72 2 134 19.5t136 47.5l31 -79q-57 -31 -135 -53.5t-166 -26.5v-166h-72v166z M287 492q0 -80 12 -152t43 -126t81 -89t128 -43v831q-135 -23 -199.5 -135t-64.5 -286z" />
<glyph unicode="&#xa3;" d="M287 733q0 12 2 46t4 73t3 72.5t1 46.5q4 82 25.5 154.5t66.5 127t114.5 86t172.5 31.5q86 0 174 -16.5t145 -42.5l-34 -90q-84 33 -152 42t-127 9q-82 0 -133 -22.5t-82 -64.5t-43 -98.5t-16 -123.5l-11 -230h400v-82h-406q0 -10 -1 -38l-2 -57q-1 -30 -3 -57.5 t-2 -37.5q-2 -51 -9 -105.5t-21.5 -104.5t-36 -92t-54.5 -67h719v-92h-875l3 92q47 20 77.5 61.5t49 92.5t26.5 107.5t10 109.5l11 188h-144v82h148z" />
<glyph unicode="&#xa4;" horiz-adv-x="1081" d="M244 627q0 -61 23.5 -115.5t63.5 -94.5t93 -62.5t115 -22.5q59 0 112.5 22.5t93 62.5t63 94t23.5 116q0 59 -22.5 112.5t-62 93t-93 63.5t-114.5 24t-114.5 -24t-93.5 -63.5t-63.5 -93t-23.5 -112.5zM113 995l57 60l131 -129q51 41 112.5 62.5t127.5 21.5t125 -22.5 t112 -61.5l131 129l60 -62l-133 -127q47 -59 65.5 -116.5t18.5 -120.5q0 -66 -21.5 -126.5t-62.5 -113.5l25 -24l42 -38l42 -37q19 -17 26 -24l-62 -65l-133 129q-57 -47 -116.5 -64.5t-118.5 -17.5q-61 0 -120 17.5t-118 64.5l-133 -131l-59 63l131 127q-49 59 -66.5 120.5 t-17.5 115.5q0 61 18.5 123.5t65.5 115.5z" />
<glyph unicode="&#xa5;" d="M141 584v65h310l-45 89l-63 124l-73 142l-72 141l-63 124l-45 89h123q12 -29 40 -86l59 -122l61 -123l41 -85l125 -254h6q10 18 27 53l37 73l37 74q17 36 28 54l207 416h120l-46 -89l-65 -124l-75 -141l-75 -142l-64 -124l-45 -89h313v-65h-803zM944 485v-65h-346v-420 h-117v420h-340v65h803z" />
<glyph unicode="&#xa6;" horiz-adv-x="454" d="M178 713v717h90v-717h-90zM268 510v-791h-90v791h90z" />
<glyph unicode="&#xa7;" horiz-adv-x="933" d="M815 612q0 -66 -32.5 -133t-108.5 -133q51 -33 82.5 -68.5t48 -69.5t21.5 -62.5t5 -47.5q0 -82 -32.5 -141t-86 -97t-125 -56.5t-147.5 -18.5q-98 0 -168.5 15.5t-130.5 33.5l25 82q90 -29 153.5 -38t122.5 -9q123 0 202 56.5t79 160.5q0 86 -62.5 139.5t-154.5 93.5 q-66 31 -134.5 60t-123.5 65.5t-91 87t-36 123.5q0 74 38 144.5t122 130.5q-72 49 -103 100t-31 117q0 74 27 130t75 93t113.5 56.5t143.5 19.5q98 0 163.5 -14.5t121.5 -32.5l-29 -84q-78 25 -136.5 34t-121.5 9q-47 0 -92 -11.5t-81 -36t-57.5 -63.5t-21.5 -94 q0 -47 28.5 -82t72.5 -64.5t100 -55.5l108 -50q127 -61 190.5 -127t63.5 -162zM715 598q0 51 -28 91t-76 73t-113 63l-142 68q-57 -47 -94 -104.5t-37 -110.5q0 -61 35 -102t88 -72t120 -57.5t130 -59.5q59 55 88 111.5t29 99.5z" />
<glyph unicode="&#xa8;" horiz-adv-x="958" d="M707 1239q0 -31 -22.5 -51.5t-55.5 -20.5q-31 0 -51.5 20.5t-20.5 51.5t21.5 52.5t50.5 21.5q33 0 55.5 -20.5t22.5 -53.5zM373 1239q0 -31 -21.5 -51.5t-56.5 -20.5q-31 0 -52.5 20.5t-21.5 51.5t22.5 52.5t51.5 21.5q35 0 56.5 -20.5t21.5 -53.5z" />
<glyph unicode="&#xa9;" horiz-adv-x="1695" d="M1599 684q0 -154 -59 -288t-161.5 -233.5t-237.5 -157.5t-289 -58t-289 58t-235.5 157.5t-158.5 233.5t-58 288q0 152 58 285t158.5 233.5t235.5 157.5t289 57t289 -57t237.5 -157.5t161.5 -233.5t59 -285zM1526 684q0 137 -52.5 259t-143.5 212t-214 142.5t-264 52.5 q-139 0 -261 -52.5t-214 -142.5t-145.5 -212t-53.5 -259q0 -139 53.5 -260t145.5 -211t214 -142.5t261 -52.5q141 0 264 52.5t214 142.5t143.5 211t52.5 260zM537 666q0 -88 14 -167t53 -137.5t106.5 -93.5t172.5 -35q20 0 50 2.5t62.5 6.5t65.5 10t61 16l19 -69 q-25 -10 -57.5 -18.5t-69.5 -14.5t-75 -9t-73 -3q-115 0 -195.5 36.5t-132 103t-74 162t-22.5 212.5q0 78 18.5 170t66.5 172t132 133t215 53q84 0 146.5 -11t103.5 -28l-20 -76q-61 23 -117.5 30t-105.5 7q-86 0 -150.5 -31.5t-107.5 -91t-64.5 -143.5t-21.5 -186z" />
<glyph unicode="&#xaa;" horiz-adv-x="679" d="M563 627h94l7 -66q-27 -10 -60 -16t-57 -6q-39 0 -56.5 18t-23.5 57q-78 -57 -136.5 -68t-88.5 -11q-61 0 -100.5 18t-62 46t-31.5 61.5t-9 64.5q0 96 64.5 139t156.5 54q51 6 105 8l102 4v45q0 86 -29.5 122t-115.5 36q-49 0 -104.5 -11.5t-111.5 -31.5l-13 34 q-7 18 -11 35q63 27 131 40t129 13q109 0 165 -48t56 -171v-366zM467 862l-88 -4q-43 -2 -84 -6q-72 -6 -114 -36t-42 -83q0 -121 131 -121q43 0 96.5 22.5t100.5 57.5v170z" />
<glyph unicode="&#xab;" horiz-adv-x="825" d="M131 414l289 309l49 -41l-219 -305l221 -305l-49 -39l-291 307v74zM389 414l289 309l51 -41l-221 -305l223 -305l-51 -39l-291 307v74z" />
<glyph unicode="&#xac;" d="M932 219h-92v346h-674v88h766v-434z" />
<glyph unicode="&#xad;" horiz-adv-x="708" d="M106 477v103h496v-103h-496z" />
<glyph unicode="&#xae;" horiz-adv-x="1173" d="M1063 969q0 -100 -39 -187.5t-104.5 -152t-153.5 -101t-188 -36.5q-102 0 -190.5 35.5t-154 100t-103.5 151.5t-38 190q0 100 38 187t103.5 152.5t153.5 103.5t191 38q100 0 188 -38t153.5 -103.5t104.5 -152.5t39 -187zM1004 969q0 88 -33 164.5t-91.5 135t-136 92.5 t-165.5 34t-166 -34t-135.5 -92.5t-91 -135t-33.5 -164.5t32.5 -165t90 -134.5t135 -90t168.5 -32.5q90 0 167.5 31.5t135 89t90.5 134.5t33 167zM715 1106q0 61 -34 86t-81 25h-119v-224h119q45 0 80 21.5t35 91.5zM719 676l-119 262h-119v-262h-69v596h190q82 0 133 -39 t51 -125q0 -41 -25.5 -90t-90.5 -72l125 -270h-76z" />
<glyph unicode="&#xaf;" horiz-adv-x="997" d="M174 1317h635v-96h-635v96z" />
<glyph unicode="&#xb0;" horiz-adv-x="694" d="M606 1110q0 -53 -19.5 -100t-54 -81t-80.5 -53.5t-100 -19.5q-123 0 -191.5 72.5t-68.5 181.5q0 51 20.5 98t55.5 83t83 57.5t101 21.5t99.5 -21.5t81 -57.5t54 -83t19.5 -98zM530 1108q0 37 -15 70.5t-39.5 59.5t-57.5 41t-70 15t-69.5 -15t-57 -41t-39 -59.5 t-14.5 -70.5t14.5 -68.5t39 -56.5t57 -39t69.5 -14t70 14t57.5 39t39.5 56.5t15 68.5z" />
<glyph unicode="&#xb1;" d="M596 561v-338h-92v338h-338v92h338v328h92v-328h336v-92h-336zM936 102v-84h-776v84h776z" />
<glyph unicode="&#xb2;" horiz-adv-x="710" d="M590 1333q0 -74 -43 -147.5t-105.5 -142t-133.5 -129.5l-124 -105h83q65 0 136.5 -1t135.5 -1h82v-78h-582v68l156 133q80 70 144 138.5t105 134t41 122.5q0 76 -50 108.5t-126 32.5q-41 0 -99 -14t-128 -55l-39 67q74 49 145.5 67.5t130.5 18.5q57 0 106.5 -13t86.5 -40 t57.5 -68t20.5 -96z" />
<glyph unicode="&#xb3;" horiz-adv-x="710" d="M592 1540q4 -16 8 -29.5t8 -29.5l-131 -121l-151 -141h18q59 0 111.5 -14.5t90.5 -43t60.5 -73t22.5 -103.5q0 -66 -25.5 -115t-68.5 -82.5t-100.5 -51t-119.5 -17.5q-80 0 -147.5 10t-128.5 37q8 18 14 37l13 37q86 -27 144 -33t95 -6q98 0 161.5 46t63.5 140 q0 78 -66.5 117t-170.5 39q-49 0 -94 -6l-25 57l141 131l140 129q-2 2 -2 4q-96 0 -189.5 1t-187.5 1v80h516z" />
<glyph unicode="&#xb4;" horiz-adv-x="983" d="M397 1112l-53 45l229 316l93 -82z" />
<glyph unicode="&#xb5;" horiz-adv-x="993" d="M236 20v-450h-115v1429h112v-690q0 -57 9.5 -100t33 -73t65.5 -45t108 -15q59 0 144 34.5t163 106.5v782h114v-999h-112v123q-2 0 -2 1t-4 1q-55 -49 -104.5 -77t-92.5 -43t-79 -19t-66 -4q-113 0 -164 43z" />
<glyph unicode="&#x3bc;" horiz-adv-x="993" d="M236 20v-450h-115v1429h112v-690q0 -57 9.5 -100t33 -73t65.5 -45t108 -15q59 0 144 34.5t163 106.5v782h114v-999h-112v123q-2 0 -2 1t-4 1q-55 -49 -104.5 -77t-92.5 -43t-79 -19t-66 -4q-113 0 -164 43z" />
<glyph unicode="&#xb6;" horiz-adv-x="1005" d="M451 721q-74 0 -137.5 26.5t-109.5 72.5t-73 109.5t-27 135.5t27 136.5t73 113.5t109.5 77.5t137.5 28.5h370v-1792h-90v1702h-151l2 -1702h-95v1092h-36z" />
<glyph unicode="&#xb7;" horiz-adv-x="368" d="M281 580q0 -37 -28 -65t-63 -28t-63.5 28t-28.5 65t28 62.5t64 25.5q35 0 63 -25.5t28 -62.5z" />
<glyph unicode="&#xb8;" horiz-adv-x="993" d="M627 20l-64 -77l-63 -82q102 -2 168.5 -37t66.5 -115q0 -82 -85 -142.5t-267 -60.5q0 14 -1 27.5t-1 30.5q133 10 194.5 47t61.5 90q0 47 -45 67.5t-109 22.5q-16 2 -30 2h-31l-23 33l90 115q43 57 91 110z" />
<glyph unicode="&#xb9;" horiz-adv-x="710" d="M326 1442l-211 -29l-15 68l236 61h88v-813h-98v713z" />
<glyph unicode="&#xba;" horiz-adv-x="706" d="M645 872q0 -61 -13.5 -121.5t-47 -107.5t-91 -76.5t-145.5 -29.5q-84 0 -139 27.5t-88 74.5t-46.5 106.5t-13.5 124.5q0 63 15.5 126t50.5 112t91 79t140 30t139.5 -30t88 -79t46 -111t13.5 -125zM547 870q0 43 -7.5 91.5t-27.5 88.5t-57 65.5t-97 25.5q-59 0 -98 -24.5 t-61.5 -63.5t-30.5 -87t-8 -96q0 -49 7 -95t28.5 -81t60.5 -56.5t102 -21.5q59 0 96.5 24t57.5 60.5t27.5 81.5t7.5 88z" />
<glyph unicode="&#xbb;" horiz-adv-x="825" d="M713 340l-291 -307l-49 39l221 305l-221 305l51 41l289 -309v-74zM455 340l-291 -307l-51 39l221 305l-219 305l51 41l289 -309v-74z" />
<glyph unicode="&#xbc;" horiz-adv-x="1638" d="M1346 229v-229h-99v229h-428v70l50 60l76 92l89 106l89 106l76 90l50 60h97v-506h127v-78h-127zM528 -47h-86l588 1479h82zM391 1257l-211 -28l-14 67l235 62h88v-813h-98v712zM1243 688l-313 -381h319v381h-6z" />
<glyph unicode="&#xbd;" horiz-adv-x="1638" d="M1460 602q0 -72 -43 -145.5t-105.5 -142t-131.5 -129.5l-125 -105h436v-80h-582v70l153 129q79 68 144.5 137.5t107.5 136t42 123.5q0 76 -50.5 108.5t-125.5 32.5q-41 0 -99.5 -14t-128.5 -55l-39 67q74 49 145.5 67.5t131.5 18.5q57 0 106.5 -13t86 -40t57 -68 t20.5 -98zM475 -47h-86l588 1479h82zM373 1257l-211 -28l-15 67l236 62h88v-813h-98v712z" />
<glyph unicode="&#xbe;" horiz-adv-x="1638" d="M1419 229v-229h-98v229h-428v70l50 60l76 92l89 106l89 106l76 90l50 60h96v-506h127v-78h-127zM645 1356q4 -16 8 -29.5l9 -30.5l-132 -120l-151 -142h18q59 0 111.5 -14t90.5 -43t60.5 -73t22.5 -103q0 -66 -25.5 -115t-68.5 -83t-100.5 -51t-118.5 -17 q-80 0 -147.5 10t-129.5 37q8 18 14 36l13 37q86 -27 144.5 -33t94.5 -6q98 0 162 46.5t64 140.5q0 78 -66.5 116.5t-171.5 38.5q-49 0 -94 -6l-25 58l142 131l139 129q-2 2 -2 4q-96 0 -189.5 1t-187.5 1v80h516zM606 -47h-86l588 1479h82zM1317 688l-313 -381h319v381h-6z " />
<glyph unicode="&#xbf;" horiz-adv-x="868" d="M367 80q-78 -59 -123 -114.5t-45 -131.5q0 -98 70.5 -139t179.5 -41q63 0 141 10t186 45l25 -88q-94 -35 -187.5 -50t-167.5 -15q-184 0 -276 70.5t-96 195.5q0 98 55 172t129 133q72 55 123 102t84 90t48 84t15 86q0 35 -4 71t-12 79l96 16q12 -59 17.5 -104t5.5 -76 q0 -104 -66.5 -194t-197.5 -201zM434 926q0 37 25.5 62.5t60.5 25.5q37 0 63.5 -25.5t26.5 -62.5q0 -35 -26.5 -60.5t-61.5 -25.5t-61.5 25.5t-26.5 60.5z" />
<glyph unicode="&#xc0;" horiz-adv-x="1128" d="M971 0l-123 383h-576l-59 -193l-59 -190h-125l456 1399h156l228 -701l227 -698h-125zM819 477l-93 297l-93 295q-6 23 -16 52l-18 61l-18 60l-16 52h-6l-70 -225l-184 -592h514zM303 1755l90 84l232 -313l-58 -47z" />
<glyph unicode="&#xc1;" horiz-adv-x="1128" d="M971 0l-123 383h-576l-59 -193l-59 -190h-125l456 1399h156l228 -701l227 -698h-125zM819 477l-93 297l-93 295q-6 23 -16 52l-18 61l-18 60l-16 52h-6l-70 -225l-184 -592h514zM569 1479l-57 45l231 313l93 -82z" />
<glyph unicode="&#xc2;" horiz-adv-x="1128" d="M971 0l-123 383h-576l-59 -193l-59 -190h-125l456 1399h156l228 -701l227 -698h-125zM819 477l-93 297l-93 295q-6 23 -16 52l-18 61l-18 60l-16 52h-6l-70 -225l-184 -592h514zM858 1470l-297 195l-295 -197l-37 43l289 269h88l291 -264z" />
<glyph unicode="&#xc3;" horiz-adv-x="1128" d="M971 0l-123 383h-576l-59 -193l-59 -190h-125l456 1399h156l228 -701l227 -698h-125zM819 477l-93 297l-93 295q-6 23 -16 52l-18 61l-18 60l-16 52h-6l-70 -225l-184 -592h514zM711 1542q-39 0 -80 12.5t-81 27.5l-76 27.5t-62 12.5l-109 -82l-45 31q23 61 65 99t95 38 q35 0 75 -12l79 -26l77 -25q37 -12 66 -13l106 82l43 -33q-23 -59 -61.5 -99t-91.5 -40z" />
<glyph unicode="&#xc4;" horiz-adv-x="1128" d="M971 0l-123 383h-576l-59 -193l-59 -190h-125l456 1399h156l228 -701l227 -698h-125zM819 477l-93 297l-93 295q-6 23 -16 52l-18 61l-18 60l-16 52h-6l-70 -225l-184 -592h514zM471 1565q0 -33 -22.5 -53.5t-55.5 -20.5q-31 0 -52.5 20.5t-21.5 53.5q0 29 23 50t51 21 q33 0 55.5 -20t22.5 -51zM805 1565q0 -33 -22.5 -53.5t-57.5 -20.5q-29 0 -49.5 20.5t-20.5 53.5q0 29 20.5 50t49.5 21q35 0 57.5 -20t22.5 -51z" />
<glyph unicode="&#xc5;" horiz-adv-x="1128" d="M971 0l-123 383h-576l-59 -193l-59 -190h-125l456 1399h156l228 -701l227 -698h-125zM819 477l-93 297l-93 295q-6 23 -16 52l-18 61l-18 60l-16 52h-6l-70 -225l-184 -592h514zM563 1444q-90 0 -145.5 57.5t-55.5 136.5q0 39 15.5 75t42 62.5t63.5 42t80 15.5t78 -15.5 t61.5 -42t41 -62.5t14.5 -75q0 -82 -55.5 -138t-139.5 -56zM563 1763q-59 0 -93 -36.5t-34 -94.5q0 -53 34 -88t93 -35q55 0 89 35t34 88q0 55 -34 93t-89 38z" />
<glyph unicode="&#xc6;" horiz-adv-x="1855" d="M973 412h-561l-260 -412h-132l885 1399h830v-92h-641v-521h546v-92h-546v-600h675v-94h-796v412zM467 510h506v786h-8z" />
<glyph unicode="&#xc7;" horiz-adv-x="1165" d="M709 1421q111 0 199.5 -16t148.5 -39l-29 -92q-80 27 -160 38t-149 11q-123 0 -211 -45t-146.5 -128t-86 -199.5t-27.5 -262.5q0 -121 18.5 -229.5t69.5 -192.5t143 -133t240 -49q27 0 68.5 3t88 8t94.5 14.5t89 21.5l24 -86q-35 -12 -78.5 -23.5t-92 -18.5t-98.5 -12 t-95 -5l-56 -71l-57 -73q102 -2 169 -36.5t67 -114.5q0 -82 -85 -142.5t-268 -60.5q0 14 -1 27.5t-1 29.5q133 10 194.5 47t61.5 91q0 47 -45 67.5t-108 22.5q-16 2 -31 2h-31l-22 32l71 93q34 45 70 88q-145 8 -244.5 60t-162 143.5t-90 218.5t-27.5 280q0 113 24.5 241 t90 237.5t179.5 181t292 71.5z" />
<glyph unicode="&#xc8;" horiz-adv-x="1087" d="M164 0v1399h805v-94h-684v-517h585v-94h-585v-598h719v-96h-840zM360 1755l91 84l231 -313l-57 -47z" />
<glyph unicode="&#xc9;" horiz-adv-x="1087" d="M164 0v1399h805v-94h-684v-517h585v-94h-585v-598h719v-96h-840zM559 1479l-57 45l231 313l92 -82z" />
<glyph unicode="&#xca;" horiz-adv-x="1087" d="M164 0v1399h805v-94h-684v-517h585v-94h-585v-598h719v-96h-840zM860 1483l-297 194l-295 -196l-37 43l289 268h88l291 -264z" />
<glyph unicode="&#xcb;" horiz-adv-x="1087" d="M164 0v1399h805v-94h-684v-517h585v-94h-585v-598h719v-96h-840zM821 1571q0 -33 -22.5 -53.5t-57.5 -20.5q-29 0 -49 20.5t-20 53.5q0 29 20.5 50t48.5 21q35 0 57.5 -20t22.5 -51zM487 1571q0 -33 -22.5 -53.5t-54.5 -20.5q-31 0 -52.5 20.5t-21.5 53.5q0 29 22.5 50 t51.5 21q33 0 55 -20t22 -51z" />
<glyph unicode="&#xcc;" horiz-adv-x="487" d="M184 0v1401h119v-1401h-119zM-14 1755l90 84l231 -313l-57 -47z" />
<glyph unicode="&#xcd;" horiz-adv-x="487" d="M184 0v1401h119v-1401h-119zM242 1479l-58 45l232 313l92 -82z" />
<glyph unicode="&#xce;" horiz-adv-x="487" d="M184 0v1401h119v-1401h-119zM541 1473l-297 194l-295 -197l-37 43l289 269h88l291 -264z" />
<glyph unicode="&#xcf;" horiz-adv-x="487" d="M184 0v1401h119v-1401h-119zM492 1573q0 -33 -23 -53.5t-57 -20.5q-29 0 -49.5 20.5t-20.5 53.5q0 29 20.5 50.5t49.5 21.5q35 0 57.5 -20.5t22.5 -51.5zM158 1573q0 -33 -22.5 -53.5t-55.5 -20.5q-31 0 -52.5 20.5t-21.5 53.5q0 29 22.5 50.5t51.5 21.5q33 0 55.5 -20.5 t22.5 -51.5z" />
<glyph unicode="&#xd0;" horiz-adv-x="1275" d="M164 0v690h-131v90h131v621h430q166 0 273.5 -56.5t171 -152.5t89 -222t25.5 -268q0 -143 -27.5 -271t-94 -223t-178.5 -151.5t-280 -56.5h-409zM287 1305v-525h370v-90h-370v-592h270q31 0 78 3t99 20.5t104.5 53.5t94.5 101.5t68.5 166t26.5 245.5q0 150 -24.5 253 t-63.5 172t-88 106.5t-100.5 57t-98.5 24t-82 4.5h-284z" />
<glyph unicode="&#xd1;" horiz-adv-x="1347" d="M1065 205v1194h119l-2 -1399h-117l-75 114l-107 167l-124 193l-124 194l-109 167l-73 113l-164 264q-2 0 -4 -1t-4 -1v-1210h-117v1399h123l72 -111l108 -166l125 -193l124 -194l105 -166l72 -110l164 -254h8zM827 1540q-39 0 -79.5 12.5t-80.5 27.5l-76 27.5t-63 12.5 l-108 -82l-45 31q23 61 64.5 99t95.5 38q35 0 74 -12l80 -26l77 -26q37 -12 65 -12l107 82l43 -33q-23 -59 -62 -99t-92 -40z" />
<glyph unicode="&#xd2;" horiz-adv-x="1384" d="M1262 694q0 -152 -35 -280.5t-105.5 -224t-175 -149.5t-241.5 -54q-160 0 -270.5 49t-179.5 139t-100.5 220t-31.5 294q0 143 29.5 276.5t97 234.5t179.5 161.5t276 60.5q166 0 273 -60.5t170.5 -161.5t88.5 -232.5t25 -272.5zM1135 688q0 106 -15.5 220t-61.5 207 t-131 152.5t-222 59.5q-139 0 -227.5 -55t-139.5 -145.5t-70.5 -206t-19.5 -236.5q0 -295 106.5 -449.5t343.5 -154.5q113 0 195 48t135 130t80 192.5t27 237.5zM446 1755l91 84l231 -313l-57 -47z" />
<glyph unicode="&#xd3;" horiz-adv-x="1384" d="M1262 694q0 -152 -35 -280.5t-105.5 -224t-175 -149.5t-241.5 -54q-160 0 -270.5 49t-179.5 139t-100.5 220t-31.5 294q0 143 29.5 276.5t97 234.5t179.5 161.5t276 60.5q166 0 273 -60.5t170.5 -161.5t88.5 -232.5t25 -272.5zM1135 688q0 106 -15.5 220t-61.5 207 t-131 152.5t-222 59.5q-139 0 -227.5 -55t-139.5 -145.5t-70.5 -206t-19.5 -236.5q0 -295 106.5 -449.5t343.5 -154.5q113 0 195 48t135 130t80 192.5t27 237.5zM688 1479l-57 45l231 313l92 -82z" />
<glyph unicode="&#xd4;" horiz-adv-x="1384" d="M1262 694q0 -152 -35 -280.5t-105.5 -224t-175 -149.5t-241.5 -54q-160 0 -270.5 49t-179.5 139t-100.5 220t-31.5 294q0 143 29.5 276.5t97 234.5t179.5 161.5t276 60.5q166 0 273 -60.5t170.5 -161.5t88.5 -232.5t25 -272.5zM1135 688q0 106 -15.5 220t-61.5 207 t-131 152.5t-222 59.5q-139 0 -227.5 -55t-139.5 -145.5t-70.5 -206t-19.5 -236.5q0 -295 106.5 -449.5t343.5 -154.5q113 0 195 48t135 130t80 192.5t27 237.5zM1004 1483l-297 194l-295 -196l-37 43l289 268h88l290 -264z" />
<glyph unicode="&#xd5;" horiz-adv-x="1384" d="M1262 694q0 -152 -35 -280.5t-105.5 -224t-175 -149.5t-241.5 -54q-160 0 -270.5 49t-179.5 139t-100.5 220t-31.5 294q0 143 29.5 276.5t97 234.5t179.5 161.5t276 60.5q166 0 273 -60.5t170.5 -161.5t88.5 -232.5t25 -272.5zM1135 688q0 106 -15.5 220t-61.5 207 t-131 152.5t-222 59.5q-139 0 -227.5 -55t-139.5 -145.5t-70.5 -206t-19.5 -236.5q0 -295 106.5 -449.5t343.5 -154.5q113 0 195 48t135 130t80 192.5t27 237.5zM854 1567q-39 0 -80 12t-81 27.5t-75.5 28t-62.5 12.5l-109 -82l-45 30q23 61 65 99.5t95 38.5q35 0 75 -13 l80 -25l77 -26q37 -12 65 -12l107 82l43 -33q-23 -59 -62 -99t-92 -40z" />
<glyph unicode="&#xd6;" horiz-adv-x="1384" d="M1262 694q0 -152 -35 -280.5t-105.5 -224t-175 -149.5t-241.5 -54q-160 0 -270.5 49t-179.5 139t-100.5 220t-31.5 294q0 143 29.5 276.5t97 234.5t179.5 161.5t276 60.5q166 0 273 -60.5t170.5 -161.5t88.5 -232.5t25 -272.5zM1135 688q0 106 -15.5 220t-61.5 207 t-131 152.5t-222 59.5q-139 0 -227.5 -55t-139.5 -145.5t-70.5 -206t-19.5 -236.5q0 -295 106.5 -449.5t343.5 -154.5q113 0 195 48t135 130t80 192.5t27 237.5zM946 1593q0 -33 -22.5 -53t-57.5 -20q-29 0 -49 20.5t-20 52.5q0 29 20.5 50.5t48.5 21.5q35 0 57.5 -20.5 t22.5 -51.5zM612 1593q0 -33 -22.5 -53t-54.5 -20q-31 0 -52.5 20.5t-21.5 52.5q0 29 22.5 50.5t51.5 21.5q33 0 55 -20.5t22 -51.5z" />
<glyph unicode="&#xd7;" horiz-adv-x="1118" d="M561 522l-262 -262l-66 66l261 262l-261 260l64 63l260 -260l248 258l65 -67l-247 -258l260 -256l-66 -66z" />
<glyph unicode="&#xd8;" horiz-adv-x="1343" d="M1241 694q0 -152 -35 -280.5t-105.5 -224t-175 -149.5t-241.5 -54q-135 0 -235.5 34.5t-169.5 102.5l-99 -133h-80l136 180q-72 92 -103 222t-31 296q0 143 30 276.5t97.5 234.5t179 161.5t275.5 60.5q129 0 220 -36.5t155 -102.5l104 141h86l-143 -192 q76 -104 105.5 -243.5t29.5 -293.5zM1114 688q0 111 -18.5 228.5t-71.5 213.5l-674 -917q106 -133 328 -133q113 0 194.5 48t135 130t80 192.5t26.5 237.5zM227 684q0 -133 20.5 -236.5t65.5 -175.5l676 918q-49 61 -123.5 99t-181.5 38q-139 0 -227 -55t-139.5 -145.5 t-71 -206t-19.5 -236.5z" />
<glyph unicode="&#xd9;" horiz-adv-x="1339" d="M1186 498q0 -115 -32 -209t-96.5 -162t-161.5 -104.5t-228 -36.5q-270 0 -391 136t-121 376v903h116l2 -901q0 -209 100.5 -314.5t295.5 -105.5q193 0 294 104.5t101 315.5v901h121v-903zM436 1755l90 84l232 -313l-58 -47z" />
<glyph unicode="&#xda;" horiz-adv-x="1339" d="M1186 498q0 -115 -32 -209t-96.5 -162t-161.5 -104.5t-228 -36.5q-270 0 -391 136t-121 376v903h116l2 -901q0 -209 100.5 -314.5t295.5 -105.5q193 0 294 104.5t101 315.5v901h121v-903zM639 1479l-57 45l231 313l92 -82z" />
<glyph unicode="&#xdb;" horiz-adv-x="1339" d="M1186 498q0 -115 -32 -209t-96.5 -162t-161.5 -104.5t-228 -36.5q-270 0 -391 136t-121 376v903h116l2 -901q0 -209 100.5 -314.5t295.5 -105.5q193 0 294 104.5t101 315.5v901h121v-903zM973 1483l-307 190l-308 -192l-39 41l302 264h90l303 -260z" />
<glyph unicode="&#xdc;" horiz-adv-x="1339" d="M1186 498q0 -115 -32 -209t-96.5 -162t-161.5 -104.5t-228 -36.5q-270 0 -391 136t-121 376v903h116l2 -901q0 -209 100.5 -314.5t295.5 -105.5q193 0 294 104.5t101 315.5v901h121v-903zM913 1575q0 -33 -22.5 -53.5t-56.5 -20.5q-29 0 -49.5 20.5t-20.5 53.5 q0 29 20.5 50.5t49.5 21.5q35 0 57 -20.5t22 -51.5zM580 1575q0 -33 -22.5 -53.5t-55.5 -20.5q-31 0 -52.5 20.5t-21.5 53.5q0 29 22.5 50.5t51.5 21.5q33 0 55.5 -20.5t22.5 -51.5z" />
<glyph unicode="&#xdd;" horiz-adv-x="1024" d="M442 623l-417 778h129l219 -416l129 -256h8l133 254l227 418h127l-428 -770v-631h-127v623zM492 1458l-58 45l232 314l92 -82z" />
<glyph unicode="&#xde;" horiz-adv-x="1075" d="M1016 729q0 -61 -18.5 -134t-63.5 -134.5t-123 -102.5t-197 -41h-329v-317h-121v1401h121v-275h311q88 0 165 -24.5t134 -73.5t89 -124t32 -175zM285 1030v-618h315q53 0 105.5 14t93.5 50t66.5 96.5t25.5 150.5q0 78 -23.5 136.5t-63.5 96t-94.5 56t-115.5 18.5h-309z " />
<glyph unicode="&#xdf;" horiz-adv-x="1150" d="M565 1468q96 0 159.5 -25.5t101.5 -62.5t53.5 -81t15.5 -80q0 -74 -35 -128.5t-78 -98.5t-77.5 -85t-34.5 -88q0 -53 53 -113.5t129 -119.5l84 -70q41 -35 72.5 -76t52 -92t20.5 -119q-2 -45 -19.5 -91t-55 -83t-98 -59.5t-146.5 -22.5q-72 0 -149.5 13.5t-131.5 33.5 l29 91q104 -37 161.5 -44.5t90.5 -7.5q98 0 150.5 49.5t52.5 116.5q0 47 -16.5 86t-42 73t-57.5 61l-61 55l-80 72q-42 38 -76 77t-56.5 81t-22.5 85q0 57 35 105.5t78 93.5t77.5 90t34.5 96q0 12 -4 42t-24.5 58.5t-65.5 51t-127 22.5q-61 0 -105 -20.5t-74 -56t-44.5 -82 t-14.5 -97.5v-1118h-112v797h-150v84h150v235q0 45 14.5 106.5t53 116t109 92t181.5 37.5z" />
<glyph unicode="&#xe0;" horiz-adv-x="1036" d="M516 1010q152 0 235 -74t83 -252v-594h135q4 -16 4 -33.5t2 -33.5q-35 -16 -76 -24.5t-74 -8.5q-57 0 -82.5 27.5t-21.5 95.5l-4 2q-59 -47 -111.5 -73t-96.5 -38t-79 -14t-59 -2q-84 0 -140.5 25.5t-89 65.5t-46 89t-13.5 94q0 137 91 210t235 83l313 16v82 q0 139 -47 199.5t-182 60.5q-76 0 -156 -16t-156 -43l-28 80q86 37 182 56.5t182 19.5zM436 473q-117 -4 -174 -57.5t-57 -141.5q0 -100 50 -149t159 -49q72 0 148.5 37t158.5 104v272zM268 1391l92 84l232 -314l-57 -49z" />
<glyph unicode="&#xe1;" horiz-adv-x="1036" d="M516 1010q152 0 235 -74t83 -252v-594h135q4 -16 4 -33.5t2 -33.5q-35 -16 -76 -24.5t-74 -8.5q-57 0 -82.5 27.5t-21.5 95.5l-4 2q-59 -47 -111.5 -73t-96.5 -38t-79 -14t-59 -2q-84 0 -140.5 25.5t-89 65.5t-46 89t-13.5 94q0 137 91 210t235 83l313 16v82 q0 139 -47 199.5t-182 60.5q-76 0 -156 -16t-156 -43l-28 80q86 37 182 56.5t182 19.5zM436 473q-117 -4 -174 -57.5t-57 -141.5q0 -100 50 -149t159 -49q72 0 148.5 37t158.5 104v272zM465 1112l-53 45l229 316l92 -82z" />
<glyph unicode="&#xe2;" horiz-adv-x="1036" d="M516 1010q152 0 235 -74t83 -252v-594h135q4 -16 4 -33.5t2 -33.5q-35 -16 -76 -24.5t-74 -8.5q-57 0 -82.5 27.5t-21.5 95.5l-4 2q-59 -47 -111.5 -73t-96.5 -38t-79 -14t-59 -2q-84 0 -140.5 25.5t-89 65.5t-46 89t-13.5 94q0 137 91 210t235 83l313 16v82 q0 139 -47 199.5t-182 60.5q-76 0 -156 -16t-156 -43l-28 80q86 37 182 56.5t182 19.5zM436 473q-117 -4 -174 -57.5t-57 -141.5q0 -100 50 -149t159 -49q72 0 148.5 37t158.5 104v272zM801 1106l-297 201l-297 -203l-35 43l287 274h88l291 -270z" />
<glyph unicode="&#xe3;" horiz-adv-x="1036" d="M516 1010q152 0 235 -74t83 -252v-594h135q4 -16 4 -33.5t2 -33.5q-35 -16 -76 -24.5t-74 -8.5q-57 0 -82.5 27.5t-21.5 95.5l-4 2q-59 -47 -111.5 -73t-96.5 -38t-79 -14t-59 -2q-84 0 -140.5 25.5t-89 65.5t-46 89t-13.5 94q0 137 91 210t235 83l313 16v82 q0 139 -47 199.5t-182 60.5q-76 0 -156 -16t-156 -43l-28 80q86 37 182 56.5t182 19.5zM436 473q-117 -4 -174 -57.5t-57 -141.5q0 -100 50 -149t159 -49q72 0 148.5 37t158.5 104v272zM649 1182q-39 0 -80 12t-80.5 27.5t-75.5 28t-63 12.5l-108 -82l-45 30 q23 61 64.5 99.5t94.5 38.5q35 0 75 -13l80 -25l77 -26q37 -12 65 -12l107 82l43 -33q-23 -59 -62 -99t-92 -40z" />
<glyph unicode="&#xe4;" horiz-adv-x="1036" d="M516 1010q152 0 235 -74t83 -252v-594h135q4 -16 4 -33.5t2 -33.5q-35 -16 -76 -24.5t-74 -8.5q-57 0 -82.5 27.5t-21.5 95.5l-4 2q-59 -47 -111.5 -73t-96.5 -38t-79 -14t-59 -2q-84 0 -140.5 25.5t-89 65.5t-46 89t-13.5 94q0 137 91 210t235 83l313 16v82 q0 139 -47 199.5t-182 60.5q-76 0 -156 -16t-156 -43l-28 80q86 37 182 56.5t182 19.5zM436 473q-117 -4 -174 -57.5t-57 -141.5q0 -100 50 -149t159 -49q72 0 148.5 37t158.5 104v272zM420 1239q0 -31 -21.5 -51.5t-56.5 -20.5q-31 0 -52.5 20.5t-21.5 51.5t22.5 52.5 t51.5 21.5q35 0 56.5 -20.5t21.5 -53.5zM754 1239q0 -31 -22.5 -51.5t-55.5 -20.5q-31 0 -51.5 20.5t-20.5 51.5t21.5 52.5t50.5 21.5q33 0 55.5 -20.5t22.5 -53.5z" />
<glyph unicode="&#xe5;" horiz-adv-x="1036" d="M516 1010q152 0 235 -74t83 -252v-594h135q4 -16 4 -33.5t2 -33.5q-35 -16 -76 -24.5t-74 -8.5q-57 0 -82.5 27.5t-21.5 95.5l-4 2q-59 -47 -111.5 -73t-96.5 -38t-79 -14t-59 -2q-84 0 -140.5 25.5t-89 65.5t-46 89t-13.5 94q0 137 91 210t235 83l313 16v82 q0 139 -47 199.5t-182 60.5q-76 0 -156 -16t-156 -43l-28 80q86 37 182 56.5t182 19.5zM436 473q-117 -4 -174 -57.5t-57 -141.5q0 -100 50 -149t159 -49q72 0 148.5 37t158.5 104v272zM524 1122q-90 0 -145 57.5t-55 137.5q0 39 15 74.5t42 62.5t63.5 42t79.5 15t78 -15 t61.5 -42t41 -62.5t14.5 -74.5q0 -82 -55.5 -138.5t-139.5 -56.5zM524 1442q-59 0 -93 -37t-34 -94q0 -53 34 -88t93 -35q55 0 89 34.5t34 88.5q0 55 -34 93t-89 38z" />
<glyph unicode="&#xe6;" horiz-adv-x="1591" d="M1139 1014q94 0 159.5 -28t107.5 -72t64.5 -99t32.5 -107.5t11.5 -98.5t1.5 -72v-60h-678q0 -80 13 -151.5t47 -126t93.5 -87t151.5 -32.5q88 0 159.5 17.5t155.5 56.5l31 -78q-86 -47 -169 -68.5t-179 -21.5q-133 0 -214 42t-128 113q-78 -59 -145.5 -90t-124 -46 t-99.5 -17t-72 -2q-86 0 -140 26.5t-87 68.5t-45 91t-12 92q0 135 93 214t249 79h305v98q0 143 -53.5 203t-186.5 60q-78 0 -157.5 -17.5t-153.5 -44.5l-29 80q86 37 181.5 56.5t183.5 19.5q115 0 190.5 -45t104.5 -152q43 82 123 140.5t215 58.5zM406 74q33 0 77.5 8 t93 24.5t97.5 42t92 60.5q-25 57 -35 124.5t-10 143.5h-287q-119 0 -179 -54t-60 -144q0 -205 211 -205zM1139 924q-80 0 -135.5 -31t-89 -82t-51 -117.5t-23.5 -136.5h565q0 80 -13.5 147.5t-44 116.5t-81.5 76t-127 27z" />
<glyph unicode="&#xe7;" horiz-adv-x="911" d="M219 492q0 -86 14.5 -161t50 -130.5t95 -88t149.5 -32.5q82 0 149.5 17.5t147.5 49.5l31 -79q-59 -33 -141 -55.5t-174 -26.5q-25 -29 -49.5 -60.5t-47.5 -64.5q102 -2 169 -37t67 -115q0 -82 -85 -142.5t-267 -60.5q0 14 -1 27.5t-1 30.5q133 10 194.5 47t61.5 90 q0 47 -45 67.5t-109 22.5q-16 2 -31 2h-30l-23 33l127 162q-102 8 -173 49t-115 106.5t-63.5 151.5t-19.5 188q0 51 7.5 110.5t25 119t49 115t79.5 97.5t115.5 66.5t160.5 24.5q70 0 141.5 -11.5t138.5 -39.5l-31 -86q-74 27 -134 34t-107 7q-164 0 -245 -117.5t-81 -310.5z " />
<glyph unicode="&#xe8;" horiz-adv-x="995" d="M520 928q-80 0 -135 -31t-89 -82t-51.5 -117.5t-23.5 -138.5h570q0 80 -13.5 147.5t-44.5 116.5t-83 77t-130 28zM518 1014q96 0 163 -28t110 -72t65.5 -99t32.5 -107.5t11 -98.5t1 -72v-60h-682q0 -80 13.5 -151.5t48 -127t94 -88t151.5 -32.5q90 0 161 18.5t157 57.5 l30 -78q-86 -47 -169.5 -68.5t-182.5 -21.5q-127 0 -209 41t-129 109.5t-65.5 160.5t-18.5 197q0 41 5.5 96t21.5 112.5t45 113.5t75 100.5t112.5 71t158.5 26.5zM272 1391l93 84l231 -314l-57 -49z" />
<glyph unicode="&#xe9;" horiz-adv-x="995" d="M520 928q-80 0 -135 -31t-89 -82t-51.5 -117.5t-23.5 -138.5h570q0 80 -13.5 147.5t-44.5 116.5t-83 77t-130 28zM518 1014q96 0 163 -28t110 -72t65.5 -99t32.5 -107.5t11 -98.5t1 -72v-60h-682q0 -80 13.5 -151.5t48 -127t94 -88t151.5 -32.5q90 0 161 18.5t157 57.5 l30 -78q-86 -47 -169.5 -68.5t-182.5 -21.5q-127 0 -209 41t-129 109.5t-65.5 160.5t-18.5 197q0 41 5.5 96t21.5 112.5t45 113.5t75 100.5t112.5 71t158.5 26.5zM485 1112l-53 45l230 316l92 -82z" />
<glyph unicode="&#xea;" horiz-adv-x="995" d="M520 928q-80 0 -135 -31t-89 -82t-51.5 -117.5t-23.5 -138.5h570q0 80 -13.5 147.5t-44.5 116.5t-83 77t-130 28zM518 1014q96 0 163 -28t110 -72t65.5 -99t32.5 -107.5t11 -98.5t1 -72v-60h-682q0 -80 13.5 -151.5t48 -127t94 -88t151.5 -32.5q90 0 161 18.5t157 57.5 l30 -78q-86 -47 -169.5 -68.5t-182.5 -21.5q-127 0 -209 41t-129 109.5t-65.5 160.5t-18.5 197q0 41 5.5 96t21.5 112.5t45 113.5t75 100.5t112.5 71t158.5 26.5zM825 1092l-297 200l-297 -202l-34 43l286 274h88l291 -270z" />
<glyph unicode="&#xeb;" horiz-adv-x="995" d="M520 928q-80 0 -135 -31t-89 -82t-51.5 -117.5t-23.5 -138.5h570q0 80 -13.5 147.5t-44.5 116.5t-83 77t-130 28zM518 1014q96 0 163 -28t110 -72t65.5 -99t32.5 -107.5t11 -98.5t1 -72v-60h-682q0 -80 13.5 -151.5t48 -127t94 -88t151.5 -32.5q90 0 161 18.5t157 57.5 l30 -78q-86 -47 -169.5 -68.5t-182.5 -21.5q-127 0 -209 41t-129 109.5t-65.5 160.5t-18.5 197q0 41 5.5 96t21.5 112.5t45 113.5t75 100.5t112.5 71t158.5 26.5zM774 1239q0 -31 -22.5 -51.5t-55.5 -20.5q-31 0 -51 20.5t-20 51.5t21.5 52.5t49.5 21.5q33 0 55.5 -20.5 t22.5 -53.5zM440 1239q0 -31 -21.5 -51.5t-56.5 -20.5q-31 0 -52 20.5t-21 51.5t22.5 52.5t50.5 21.5q35 0 56.5 -20.5t21.5 -53.5z" />
<glyph unicode="&#xec;" horiz-adv-x="460" d="M172 0v997h115v-997h-115zM-18 1391l92 84l231 -314l-57 -49z" />
<glyph unicode="&#xed;" horiz-adv-x="460" d="M172 0v997h115v-997h-115zM229 1112l-53 45l230 316l92 -82z" />
<glyph unicode="&#xee;" horiz-adv-x="460" d="M172 0v997h115v-997h-115zM524 1106l-297 201l-297 -203l-34 43l286 274h88l291 -270z" />
<glyph unicode="&#xef;" horiz-adv-x="460" d="M172 0v997h115v-997h-115zM471 1239q0 -31 -22.5 -51.5t-55.5 -20.5q-31 0 -51 20.5t-20 51.5t21.5 52.5t49.5 21.5q33 0 55.5 -20.5t22.5 -53.5zM137 1239q0 -31 -21.5 -51.5t-56.5 -20.5q-31 0 -52 20.5t-21 51.5t22.5 52.5t50.5 21.5q35 0 56.5 -20.5t21.5 -53.5z" />
<glyph unicode="&#xf0;" horiz-adv-x="995" d="M807 1370l39 -53l-164 -111q117 -135 178.5 -304t57.5 -367q0 -76 -16.5 -171.5t-62.5 -179.5t-129 -141t-221 -57q-121 0 -199.5 43t-124.5 109.5t-63.5 146.5t-17.5 153q0 82 23.5 167t73.5 154.5t128 115t187 45.5q80 0 151.5 -25t124.5 -64q-55 186 -170 320 l-188 -127l-39 53l182 123q-104 109 -248 191l39 69q170 -84 287 -205zM504 831q-86 0 -145.5 -36.5t-94.5 -94t-50 -126t-15 -132.5q0 -61 12 -125.5t45 -118t92.5 -88t153.5 -34.5q100 0 159.5 49t91 119.5t42 148.5t10.5 137q0 49 -4 93.5t-15 93.5q-66 59 -139 86.5 t-143 27.5z" />
<glyph unicode="&#xf1;" horiz-adv-x="1003" d="M768 0v670q0 57 -7 102t-27.5 78t-58.5 50.5t-100 17.5q-39 0 -84 -9.5t-89 -25t-87 -35t-79 -39.5v-809h-115v997h112v-18q0 -12 1.5 -26.5t1.5 -27.5v-20q0 -2 2 -2t2 -1t2 -1q90 55 190 85t172 30q98 0 153.5 -26.5t83 -69.5t35 -96.5t7.5 -104.5v-719h-115zM629 1208 q-39 0 -80 12.5t-81 28t-76 27.5t-62 12l-109 -82l-45 31q23 61 65 99t95 38q35 0 75 -12l79 -26l77 -25q37 -12 66 -13l106 82l43 -32q-23 -59 -61.5 -99.5t-91.5 -40.5z" />
<glyph unicode="&#xf2;" horiz-adv-x="1034" d="M936 494q0 -92 -19.5 -183.5t-67.5 -164t-130 -116.5t-207 -44q-121 0 -200 42t-126 111.5t-66.5 160.5t-19.5 189t22.5 192.5t73 168.5t132.5 119t198 45q121 0 200 -45t126 -119t65.5 -167t18.5 -189zM817 489q0 72 -11 149t-42 139.5t-88.5 103.5t-149.5 41 t-151.5 -39t-94 -100.5t-48 -139.5t-13.5 -156q0 -80 11.5 -153.5t45 -130t93 -91t157.5 -34.5q90 0 147.5 37t89.5 96t43 132.5t11 145.5zM281 1391l92 84l231 -314l-57 -49z" />
<glyph unicode="&#xf3;" horiz-adv-x="1034" d="M936 494q0 -92 -19.5 -183.5t-67.5 -164t-130 -116.5t-207 -44q-121 0 -200 42t-126 111.5t-66.5 160.5t-19.5 189t22.5 192.5t73 168.5t132.5 119t198 45q121 0 200 -45t126 -119t65.5 -167t18.5 -189zM817 489q0 72 -11 149t-42 139.5t-88.5 103.5t-149.5 41 t-151.5 -39t-94 -100.5t-48 -139.5t-13.5 -156q0 -80 11.5 -153.5t45 -130t93 -91t157.5 -34.5q90 0 147.5 37t89.5 96t43 132.5t11 145.5zM510 1112l-53 45l229 316l92 -82z" />
<glyph unicode="&#xf4;" horiz-adv-x="1034" d="M936 494q0 -92 -19.5 -183.5t-67.5 -164t-130 -116.5t-207 -44q-121 0 -200 42t-126 111.5t-66.5 160.5t-19.5 189t22.5 192.5t73 168.5t132.5 119t198 45q121 0 200 -45t126 -119t65.5 -167t18.5 -189zM817 489q0 72 -11 149t-42 139.5t-88.5 103.5t-149.5 41 t-151.5 -39t-94 -100.5t-48 -139.5t-13.5 -156q0 -80 11.5 -153.5t45 -130t93 -91t157.5 -34.5q90 0 147.5 37t89.5 96t43 132.5t11 145.5zM827 1106l-297 201l-297 -203l-34 43l286 274h88l291 -270z" />
<glyph unicode="&#xf5;" horiz-adv-x="1034" d="M936 494q0 -92 -19.5 -183.5t-67.5 -164t-130 -116.5t-207 -44q-121 0 -200 42t-126 111.5t-66.5 160.5t-19.5 189t22.5 192.5t73 168.5t132.5 119t198 45q121 0 200 -45t126 -119t65.5 -167t18.5 -189zM817 489q0 72 -11 149t-42 139.5t-88.5 103.5t-149.5 41 t-151.5 -39t-94 -100.5t-48 -139.5t-13.5 -156q0 -80 11.5 -153.5t45 -130t93 -91t157.5 -34.5q90 0 147.5 37t89.5 96t43 132.5t11 145.5zM678 1182q-39 0 -80 12t-81 27.5t-75.5 28t-62.5 12.5l-109 -82l-45 30q23 61 65 99.5t95 38.5q35 0 75 -13l80 -25l76 -26 q37 -12 66 -12l106 82l43 -33q-23 -59 -61.5 -99t-91.5 -40z" />
<glyph unicode="&#xf6;" horiz-adv-x="1034" d="M936 494q0 -92 -19.5 -183.5t-67.5 -164t-130 -116.5t-207 -44q-121 0 -200 42t-126 111.5t-66.5 160.5t-19.5 189t22.5 192.5t73 168.5t132.5 119t198 45q121 0 200 -45t126 -119t65.5 -167t18.5 -189zM817 489q0 72 -11 149t-42 139.5t-88.5 103.5t-149.5 41 t-151.5 -39t-94 -100.5t-48 -139.5t-13.5 -156q0 -80 11.5 -153.5t45 -130t93 -91t157.5 -34.5q90 0 147.5 37t89.5 96t43 132.5t11 145.5zM774 1239q0 -31 -22.5 -51.5t-55.5 -20.5q-31 0 -51 20.5t-20 51.5t21.5 52.5t49.5 21.5q33 0 55.5 -20.5t22.5 -53.5zM440 1239 q0 -31 -21.5 -51.5t-56.5 -20.5q-31 0 -52 20.5t-21 51.5t22.5 52.5t50.5 21.5q35 0 56.5 -20.5t21.5 -53.5z" />
<glyph unicode="&#xf7;" d="M633 909q0 -35 -24.5 -60.5t-59.5 -25.5t-60.5 25.5t-25.5 60.5t25.5 59.5t60.5 24.5t59.5 -24.5t24.5 -59.5zM162 565v88h768v-88h-768zM633 307q0 -35 -24.5 -60.5t-59.5 -25.5t-60.5 25.5t-25.5 60.5t25.5 58.5t60.5 23.5t59.5 -23.5t24.5 -58.5z" />
<glyph unicode="&#xf8;" horiz-adv-x="997" d="M508 1014q92 0 157.5 -26.5t112.5 -74.5l76 99q10 0 32.5 1t35.5 1l-23 -30l-30 -41l-30 -41l-24 -30q55 -76 77.5 -175t22.5 -203q0 -92 -19 -183.5t-67.5 -164t-129.5 -116.5t-205 -44q-94 0 -162 24.5t-115 69.5l-67 -90q-14 0 -37 -1t-33 -1q8 8 21 26l28 39 q14 20 29 39l22 29q-55 72 -76.5 168t-21.5 200q0 98 22.5 192.5t72.5 168.5t132 119t199 45zM797 489q0 72 -11.5 150t-46.5 141l-56 -74l-80 -109l-92 -127l-91 -126l-80 -108l-55 -74q35 -39 89 -61.5t134 -22.5q90 0 146.5 37t88 96t43 132.5t11.5 145.5zM508 922 q-92 0 -150.5 -39t-93.5 -100.5t-49 -138.5t-14 -152q0 -78 11 -151t42 -128l56 73l80 108l92 126l92 126l80 109l57 74q-35 41 -83 67t-120 26z" />
<glyph unicode="&#xf9;" horiz-adv-x="985" d="M399 -20q-102 0 -158.5 28.5t-83 73.5t-31.5 99.5t-5 105.5v710h115v-675q0 -57 5 -103.5t24.5 -78t57 -49t103.5 -17.5q63 0 153.5 35.5t172.5 107.5l-2 780q23 0 57.5 1t56.5 1v-999h-112v121l-7 4q-55 -47 -106 -76t-97 -44t-82 -20t-61 -5zM262 1391l92 84l232 -314 l-58 -49z" />
<glyph unicode="&#xfa;" horiz-adv-x="985" d="M399 -20q-102 0 -158.5 28.5t-83 73.5t-31.5 99.5t-5 105.5v710h115v-675q0 -57 5 -103.5t24.5 -78t57 -49t103.5 -17.5q63 0 153.5 35.5t172.5 107.5l-2 780q23 0 57.5 1t56.5 1v-999h-112v121l-7 4q-55 -47 -106 -76t-97 -44t-82 -20t-61 -5zM469 1112l-53 45l229 316 l92 -82z" />
<glyph unicode="&#xfb;" horiz-adv-x="985" d="M399 -20q-102 0 -158.5 28.5t-83 73.5t-31.5 99.5t-5 105.5v710h115v-675q0 -57 5 -103.5t24.5 -78t57 -49t103.5 -17.5q63 0 153.5 35.5t172.5 107.5l-2 780q23 0 57.5 1t56.5 1v-999h-112v121l-7 4q-55 -47 -106 -76t-97 -44t-82 -20t-61 -5zM786 1106l-297 201 l-296 -203l-35 43l286 274h88l291 -270z" />
<glyph unicode="&#xfc;" horiz-adv-x="985" d="M399 -20q-102 0 -158.5 28.5t-83 73.5t-31.5 99.5t-5 105.5v710h115v-675q0 -57 5 -103.5t24.5 -78t57 -49t103.5 -17.5q63 0 153.5 35.5t172.5 107.5l-2 780q23 0 57.5 1t56.5 1v-999h-112v121l-7 4q-55 -47 -106 -76t-97 -44t-82 -20t-61 -5zM737 1239 q0 -31 -22.5 -51.5t-55.5 -20.5q-31 0 -51 20.5t-20 51.5t21.5 52.5t49.5 21.5q33 0 55.5 -20.5t22.5 -53.5zM403 1239q0 -31 -21.5 -51.5t-55.5 -20.5q-31 0 -52.5 20.5t-21.5 51.5t22.5 52.5t51.5 21.5q35 0 56 -20.5t21 -53.5z" />
<glyph unicode="&#xfd;" horiz-adv-x="888" d="M444 76q6 16 30 96l56 182l53 162l54 172l52 166l46 143h117l-49 -148l-69 -212l-79 -244l-80 -242l-69 -211l-49 -149q-35 -109 -91.5 -172t-160.5 -63q-29 2 -79 5t-128 25l18 86q59 -12 94 -17t70 -5q29 0 52.5 4t45 19.5t39 45t33.5 78.5l68 207h-60l-40 126l-56 174 l-65 198l-66 197l-57 173q-27 78 -41 125h112l25 -77l36 -114l42 -131l42 -131l36 -114q16 -51 24 -80l86 -274h8zM412 1112l-54 45l230 316l92 -82z" />
<glyph unicode="&#xfe;" horiz-adv-x="1017" d="M233 158q45 -31 122 -56.5t155 -25.5q59 0 111.5 22.5t91.5 74.5t61.5 137t22.5 210q0 113 -19.5 188.5t-55.5 122t-87 65.5t-113 19q-35 0 -75.5 -10t-80.5 -27.5t-75 -39t-58 -43.5v-637zM231 889h2q66 53 150 86t168 33q102 0 172 -39t113 -104.5t61 -156t18 -190.5 q0 -115 -21.5 -212t-67.5 -168.5t-121.5 -111.5t-182.5 -40q-59 0 -138 15t-151 60q0 -123 -1 -244.5t-1 -244.5h-112v1851h112v-534z" />
<glyph unicode="&#xff;" horiz-adv-x="888" d="M444 76q6 16 30 96l56 182l53 162l54 172l52 166l46 143h117l-49 -148l-69 -212l-79 -244l-80 -242l-69 -211l-49 -149q-35 -109 -91.5 -172t-160.5 -63q-29 2 -79 5t-128 25l18 86q59 -12 94 -17t70 -5q29 0 52.5 4t45 19.5t39 45t33.5 78.5l68 207h-60l-40 126l-56 174 l-65 198l-66 197l-57 173q-27 78 -41 125h112l25 -77l36 -114l42 -131l42 -131l36 -114q16 -51 24 -80l86 -274h8zM367 1239q0 -31 -21.5 -51.5t-56.5 -20.5q-31 0 -52.5 20.5t-21.5 51.5t22.5 52.5t51.5 21.5q35 0 56.5 -20.5t21.5 -53.5zM700 1239q0 -31 -22.5 -51.5 t-54.5 -20.5q-31 0 -51.5 20.5t-20.5 51.5t21.5 52.5t50.5 21.5q33 0 55 -20.5t22 -53.5z" />
<glyph unicode="&#x152;" horiz-adv-x="1599" d="M684 1421q49 0 99.5 -6t88.5 -18h629v-92h-639v-521h543v-92h-543v-600h674v-92h-719q-33 -6 -65.5 -9t-67.5 -5q-160 0 -270.5 49t-179 139t-100.5 220t-32 294q0 143 30 276.5t97.5 234.5t179 161.5t275.5 60.5zM678 78q16 0 31.5 1t31.5 3v1239q-14 0 -28.5 2t-30.5 2 q-137 0 -225 -55.5t-139.5 -145.5t-71 -205.5t-19.5 -234.5q0 -295 106.5 -450.5t344.5 -155.5z" />
<glyph unicode="&#x153;" horiz-adv-x="1679" d="M1575 76q-86 -45 -169 -66.5t-181 -21.5q-156 0 -241 62.5t-126 166.5q-41 -98 -126 -164.5t-234 -66.5q-121 0 -200 42t-126 111.5t-66.5 160.5t-19.5 189t22.5 192.5t72.5 168.5t131 119t198 45q150 0 231.5 -71t120.5 -177q18 49 48 93t74 79t103.5 55.5t137.5 20.5 q96 0 160.5 -28t106.5 -72t64.5 -98t32.5 -107.5t12.5 -98.5t2.5 -71v-58h-680q0 -80 13 -152.5t47 -128t93.5 -88t151.5 -32.5q88 0 159.5 17.5t155.5 56.5zM801 489q0 72 -10.5 149t-42 139.5t-89 103.5t-149.5 41t-150.5 -39t-93.5 -100.5t-48 -139.5t-13 -156 q0 -80 11 -153.5t44 -130t93.5 -91t156.5 -34.5q92 0 148.5 37t88 96t43 132.5t11.5 145.5zM1493 557q0 82 -13.5 149.5t-45 115.5t-84 75t-127.5 27q-80 0 -134.5 -31t-89 -81t-51 -116.5t-22.5 -138.5h567z" />
<glyph unicode="&#x178;" horiz-adv-x="1024" d="M442 623l-417 778h129l219 -416l129 -256h8l133 254l227 418h127l-428 -770v-631h-127v623zM750 1556q0 -33 -22.5 -53t-57.5 -20q-29 0 -49.5 20.5t-20.5 52.5q0 29 20.5 50.5t49.5 21.5q35 0 57.5 -20.5t22.5 -51.5zM416 1556q0 -33 -22.5 -53t-55.5 -20 q-31 0 -52.5 20.5t-21.5 52.5q0 29 22.5 50.5t51.5 21.5q33 0 55.5 -20.5t22.5 -51.5z" />
<glyph unicode="&#x2c6;" horiz-adv-x="997" d="M782 1106l-297 201l-297 -203l-34 43l286 274h88l291 -270z" />
<glyph unicode="&#x2dc;" horiz-adv-x="997" d="M647 1182q-39 0 -80 12t-81 27.5t-75.5 28t-62.5 12.5l-108 -82l-45 30q23 61 64.5 99.5t94.5 38.5q35 0 75 -13l80 -25l77 -26q37 -12 65 -12l107 82l43 -33q-23 -59 -62 -99t-92 -40z" />
<glyph unicode="&#x2000;" horiz-adv-x="919" />
<glyph unicode="&#x2001;" horiz-adv-x="1839" />
<glyph unicode="&#x2002;" horiz-adv-x="919" />
<glyph unicode="&#x2003;" horiz-adv-x="1839" />
<glyph unicode="&#x2004;" horiz-adv-x="612" />
<glyph unicode="&#x2005;" horiz-adv-x="458" />
<glyph unicode="&#x2006;" horiz-adv-x="305" />
<glyph unicode="&#x2007;" horiz-adv-x="305" />
<glyph unicode="&#x2008;" horiz-adv-x="229" />
<glyph unicode="&#x2009;" horiz-adv-x="366" />
<glyph unicode="&#x200a;" horiz-adv-x="100" />
<glyph unicode="&#x2010;" horiz-adv-x="708" d="M106 477v103h496v-103h-496z" />
<glyph unicode="&#x2011;" horiz-adv-x="708" d="M106 477v103h496v-103h-496z" />
<glyph unicode="&#x2012;" horiz-adv-x="708" d="M106 477v103h496v-103h-496z" />
<glyph unicode="&#x2013;" horiz-adv-x="1024" d="M57 473v94h914v-94h-914z" />
<glyph unicode="&#x2014;" horiz-adv-x="2048" d="M61 473v94h1917v-94h-1917z" />
<glyph unicode="&#x2018;" horiz-adv-x="413" d="M301 1163q0 -35 -25.5 -60.5t-60.5 -25.5q-43 0 -69.5 30t-26.5 79q0 33 12 71.5t33.5 74.5t51.5 68t65 54l28 -39q-72 -78 -73 -170q29 -6 47 -27.5t18 -54.5z" />
<glyph unicode="&#x2019;" horiz-adv-x="413" d="M131 1368q0 35 24.5 61.5t61.5 26.5q43 0 68.5 -29.5t25.5 -78.5q0 -35 -11 -73t-32.5 -74t-51.5 -68.5t-64 -53.5l-31 39q37 39 54.5 81t21.5 89q-31 6 -48.5 27.5t-17.5 52.5z" />
<glyph unicode="&#x201a;" horiz-adv-x="346" d="M82 72q0 35 24.5 60.5t61.5 25.5q43 0 68.5 -30t25.5 -77q0 -35 -11 -74.5t-31.5 -77.5t-50.5 -73t-65 -55l-30 36q35 41 53 89.5t20 95.5q-29 6 -47 27.5t-18 52.5z" />
<glyph unicode="&#x201c;" horiz-adv-x="620" d="M299 1163q0 -35 -24.5 -60.5t-61.5 -25.5q-43 0 -69.5 30t-26.5 79q0 70 45 146.5t117 121.5q6 -8 15 -18.5t15 -20.5q-37 -39 -54 -81t-22 -89q29 -6 47.5 -27.5t18.5 -54.5zM522 1163q0 -35 -24.5 -60.5t-61.5 -25.5q-43 0 -69.5 30t-26.5 79q0 33 12.5 71.5t34 74.5 t51 68t64.5 54l30 -39q-74 -76 -75 -170q29 -6 47 -27.5t18 -54.5z" />
<glyph unicode="&#x201d;" horiz-adv-x="620" d="M354 1368q0 35 23.5 61.5t62.5 26.5q43 0 69 -29.5t26 -78.5q0 -35 -11.5 -73t-33 -74t-51 -68.5t-66.5 -53.5l-31 39q74 76 76 170q-64 14 -64 80zM131 1368q0 35 23.5 61.5t62.5 26.5q43 0 68.5 -29.5t25.5 -78.5q0 -35 -11 -73t-32.5 -74t-51.5 -68.5t-64 -53.5 l-33 39q39 39 56.5 81t21.5 89q-31 6 -48.5 27.5t-17.5 52.5z" />
<glyph unicode="&#x201e;" horiz-adv-x="571" d="M82 72q0 35 24.5 60.5t61.5 25.5q43 0 68.5 -30t25.5 -77q0 -35 -11 -74.5t-31.5 -77.5t-50.5 -73t-65 -55l-30 36q35 41 53 89.5t20 95.5q-29 6 -47 27.5t-18 52.5zM309 72q0 35 24.5 60.5t61.5 25.5q43 0 68.5 -30t25.5 -77q0 -35 -11 -74.5t-31.5 -77.5t-50 -73 t-64.5 -55l-31 36q35 41 53.5 89.5t20.5 95.5q-29 6 -47.5 27.5t-18.5 52.5z" />
<glyph unicode="&#x2022;" horiz-adv-x="593" d="M475 555q0 -76 -52 -129t-128 -53q-74 0 -126 53t-52 129q0 78 52 130t126 52q76 0 128 -52t52 -130z" />
<glyph unicode="&#x2026;" horiz-adv-x="1167" d="M1061 76q0 -35 -25.5 -61.5t-60.5 -26.5t-60.5 26.5t-25.5 61.5t25.5 59.5t60.5 24.5t60.5 -24.5t25.5 -59.5zM651 76q0 -35 -24.5 -61.5t-59.5 -26.5t-60.5 26.5t-25.5 61.5t24.5 59.5t61.5 24.5q35 0 59.5 -24.5t24.5 -59.5zM262 76q0 -35 -25.5 -61.5t-58.5 -26.5 q-35 0 -61.5 26.5t-26.5 61.5t26.5 59.5t61.5 24.5t59.5 -24.5t24.5 -59.5z" />
<glyph unicode="&#x202f;" horiz-adv-x="366" />
<glyph unicode="&#x2039;" horiz-adv-x="626" d="M133 414l289 309l51 -41l-221 -305l221 -305l-49 -39l-291 307v74z" />
<glyph unicode="&#x203a;" horiz-adv-x="626" d="M467 340l-291 -307l-49 39l221 305l-219 305l49 41l289 -309v-74z" />
<glyph unicode="&#x205f;" horiz-adv-x="458" />
<glyph unicode="&#x20ac;" d="M895 629v-68h-631q6 -98 28.5 -185t72 -152.5t130 -103.5t203.5 -38q47 0 129 8t195 37l20 -88q-33 -12 -76.5 -21.5t-92 -16.5t-97.5 -11t-92 -4q-135 0 -233.5 41t-163 115.5t-98 181t-39.5 237.5h-93v68h838zM57 741v66h97q8 98 40.5 199.5t96 183.5t162 133t239.5 51 q104 0 185 -15.5t145 -39.5l-25 -88q-84 29 -166.5 38t-134.5 9q-98 0 -172.5 -34t-128 -95.5t-85 -148.5t-42.5 -193h627v-66h-838z" />
<glyph unicode="&#x2122;" horiz-adv-x="1390" d="M1094 1231l40 83q19 42 42 83h81v-635h-75v493h-2l-48 -97q-24 -48 -51 -97l-94 -195h-67l-48 98l-45 95l-46 94l-46 96h-2v-487h-78v635h84l99 -201l58 -123l60 -123zM285 764v567h-207v66h502v-66h-213v-567h-82z" />
<glyph unicode="&#xe000;" horiz-adv-x="995" d="M0 995h995v-995h-995v995z" />
<glyph unicode="&#xfb01;" horiz-adv-x="1050" d="M786 0v907h-475v-907h-110v907h-142v66l30 6q19 4 42 8t42 8l30 6v152q0 96 26.5 159.5t74.5 101.5t113.5 53.5t145.5 15.5q68 0 143.5 -9.5t139.5 -21.5q-4 -18 -9.5 -46t-9.5 -44q-63 10 -128.5 16t-120.5 6q-72 0 -122 -11t-82 -38.5t-47.5 -76t-15.5 -121.5v-140h590 v-997h-115z" />
<glyph unicode="&#xfb02;" horiz-adv-x="1064" d="M625 907h-310v-112v-159q0 -87 -1 -182.5t-1 -182.5v-158v-113h-110v907h-142v66l30 6q19 4 42 8t42 8l30 6v142q0 98 26.5 161.5t74.5 101.5t117 53.5t152 15.5q63 -4 132 -9.5t127 -15.5q16 2 40.5 7t38.5 7v-184v-256q0 -139 -1 -291.5t-1 -292.5v-256v-184h-110v1356 q-55 8 -114.5 14t-108.5 6q-70 0 -120 -11t-82 -39t-46.5 -76t-14.5 -122v-131h310v-90z" />
<glyph unicode="&#xfb03;" horiz-adv-x="1632" d="M1368 0v907h-471v-907h-113v907h-469v-112v-159q0 -87 -1 -182.5t-1 -182.5v-158v-113h-112v907h-138v66l30 6l40 8l40 8l30 6v138q0 88 28.5 149.5t81 100t123 57t154.5 18.5q66 0 134.5 -10t141.5 -33q47 47 121 66.5t164 19.5q66 0 141.5 -8t139.5 -22l-17 -93 q-61 12 -125.5 19.5t-118.5 7.5q-72 0 -124 -10t-85.5 -38t-49 -76t-15.5 -124v-164h586v-999h-115zM786 1198q0 80 29 137q-59 16 -114.5 23.5t-92.5 7.5q-86 0 -142 -15.5t-90 -49t-47.5 -86t-13.5 -125.5v-91h471v199z" />
<glyph unicode="&#xfb04;" horiz-adv-x="1650" d="M1161 1409q-70 0 -120 -11.5t-82.5 -39t-48 -75.5t-15.5 -122v-166h313v-88h-313v-907h-113v907h-471q0 -227 -1 -453.5t-1 -453.5h-110v907h-138v64q35 10 70 16l70 12v113q0 170 97 260t286 90q68 0 135 -9t145 -34q47 47 124 66.5t202 19.5q59 -2 121.5 -8t115.5 -14 l70 16v-1499h-113v1389q-55 10 -115.5 15t-107.5 5zM608 1366q-86 0 -143 -16.5t-91 -50t-48.5 -86t-14.5 -126.5v-92h473v154q0 53 6.5 101t22.5 83q-59 16 -113.5 24.5t-91.5 8.5z" />
</font>
</defs>
</svg>
